<svg width="1512" height="341" viewBox="0 0 1512 341" fill="none" xmlns="http://www.w3.org/2000/svg">
    <g clip-path="url(#clip0_302_22)">
    <rect width="1512" height="341" fill="white"/>
    <mask id="path-1-outside-1_302_22" maskUnits="userSpaceOnUse" x="18" y="216" width="1478" height="227" fill="black">
    <rect fill="white" x="18" y="216" width="1478" height="227"/>
    <path d="M74.6 237.984C89.992 237.984 103.443 241.035 114.952 247.136C126.461 253.237 135.336 261.835 141.576 272.928C147.955 283.883 151.144 296.571 151.144 310.992C151.144 325.275 147.955 337.963 141.576 349.056C135.336 360.149 126.392 368.747 114.744 374.848C103.235 380.949 89.8533 384 74.6 384H19.896V237.984H74.6ZM72.312 353.216C85.7627 353.216 96.232 349.541 103.72 342.192C111.208 334.843 114.952 324.443 114.952 310.992C114.952 297.541 111.208 287.072 103.72 279.584C96.232 272.096 85.7627 268.352 72.312 268.352H55.464V353.216H72.312ZM188.909 255.872C182.669 255.872 177.538 254.069 173.517 250.464C169.634 246.72 167.693 242.144 167.693 236.736C167.693 231.189 169.634 226.613 173.517 223.008C177.538 219.264 182.669 217.392 188.909 217.392C195.01 217.392 200.002 219.264 203.885 223.008C207.906 226.613 209.917 231.189 209.917 236.736C209.917 242.144 207.906 246.72 203.885 250.464C200.002 254.069 195.01 255.872 188.909 255.872ZM206.589 267.936V384H171.021V267.936H206.589ZM267.933 230.08V384H232.365V230.08H267.933ZM329.277 284.368C332.743 278.96 337.527 274.592 343.629 271.264C349.73 267.936 356.871 266.272 365.053 266.272C374.621 266.272 383.287 268.699 391.053 273.552C398.818 278.405 404.919 285.339 409.357 294.352C413.933 303.365 416.221 313.835 416.221 325.76C416.221 337.685 413.933 348.224 409.357 357.376C404.919 366.389 398.818 373.392 391.053 378.384C383.287 383.237 374.621 385.664 365.053 385.664C357.01 385.664 349.869 384 343.629 380.672C337.527 377.344 332.743 373.045 329.277 367.776V439.328H293.709V267.936H329.277V284.368ZM380.029 325.76C380.029 316.885 377.533 309.952 372.541 304.96C367.687 299.829 361.655 297.264 354.445 297.264C347.373 297.264 341.341 299.829 336.349 304.96C331.495 310.091 329.069 317.093 329.069 325.968C329.069 334.843 331.495 341.845 336.349 346.976C341.341 352.107 347.373 354.672 354.445 354.672C361.517 354.672 367.549 352.107 372.541 346.976C377.533 341.707 380.029 334.635 380.029 325.76ZM470.448 287.28C474.608 280.901 479.808 275.909 486.048 272.304C492.288 268.56 499.222 266.688 506.848 266.688V304.336H497.072C488.198 304.336 481.542 306.277 477.104 310.16C472.667 313.904 470.448 320.56 470.448 330.128V384H434.88V267.936H470.448V287.28ZM633.257 324.096C633.257 327.424 633.049 330.891 632.633 334.496H552.137C552.692 341.707 554.98 347.253 559.001 351.136C563.161 354.88 568.222 356.752 574.185 356.752C583.06 356.752 589.23 353.008 592.697 345.52H630.553C628.612 353.147 625.076 360.011 619.945 366.112C614.953 372.213 608.644 376.997 601.017 380.464C593.39 383.931 584.862 385.664 575.433 385.664C564.062 385.664 553.94 383.237 545.065 378.384C536.19 373.531 529.257 366.597 524.265 357.584C519.273 348.571 516.777 338.032 516.777 325.968C516.777 313.904 519.204 303.365 524.057 294.352C529.049 285.339 535.982 278.405 544.857 273.552C553.732 268.699 563.924 266.272 575.433 266.272C586.665 266.272 596.649 268.629 605.385 273.344C614.121 278.059 620.916 284.784 625.769 293.52C630.761 302.256 633.257 312.448 633.257 324.096ZM596.857 314.736C596.857 308.635 594.777 303.781 590.617 300.176C586.457 296.571 581.257 294.768 575.017 294.768C569.054 294.768 563.993 296.501 559.833 299.968C555.812 303.435 553.316 308.357 552.345 314.736H596.857ZM761.429 324.096C761.429 327.424 761.221 330.891 760.805 334.496H680.309C680.864 341.707 683.152 347.253 687.173 351.136C691.333 354.88 696.394 356.752 702.357 356.752C711.232 356.752 717.402 353.008 720.869 345.52H758.725C756.784 353.147 753.248 360.011 748.117 366.112C743.125 372.213 736.816 376.997 729.189 380.464C721.562 383.931 713.034 385.664 703.605 385.664C692.234 385.664 682.112 383.237 673.237 378.384C664.362 373.531 657.429 366.597 652.437 357.584C647.445 348.571 644.949 338.032 644.949 325.968C644.949 313.904 647.376 303.365 652.229 294.352C657.221 285.339 664.154 278.405 673.029 273.552C681.904 268.699 692.096 266.272 703.605 266.272C714.837 266.272 724.821 268.629 733.557 273.344C742.293 278.059 749.088 284.784 753.941 293.52C758.933 302.256 761.429 312.448 761.429 324.096ZM725.029 314.736C725.029 308.635 722.949 303.781 718.789 300.176C714.629 296.571 709.429 294.768 703.189 294.768C697.226 294.768 692.165 296.501 688.005 299.968C683.984 303.435 681.488 308.357 680.517 314.736H725.029ZM844.881 353.84V384H826.785C813.889 384 803.836 380.88 796.625 374.64C789.414 368.261 785.809 357.931 785.809 343.648V297.472H771.665V267.936H785.809V239.648H821.377V267.936H844.673V297.472H821.377V344.064C821.377 347.531 822.209 350.027 823.873 351.552C825.537 353.077 828.31 353.84 832.193 353.84H844.881ZM961.603 385.456C950.926 385.456 941.358 383.723 932.899 380.256C924.44 376.789 917.646 371.659 912.515 364.864C907.523 358.069 904.888 349.888 904.611 340.32H942.467C943.022 345.728 944.894 349.888 948.083 352.8C951.272 355.573 955.432 356.96 960.563 356.96C965.832 356.96 969.992 355.781 973.043 353.424C976.094 350.928 977.619 347.531 977.619 343.232C977.619 339.627 976.371 336.645 973.875 334.288C971.518 331.931 968.536 329.989 964.931 328.464C961.464 326.939 956.472 325.205 949.955 323.264C940.526 320.352 932.83 317.44 926.867 314.528C920.904 311.616 915.774 307.317 911.475 301.632C907.176 295.947 905.027 288.528 905.027 279.376C905.027 265.787 909.95 255.179 919.795 247.552C929.64 239.787 942.467 235.904 958.275 235.904C974.36 235.904 987.326 239.787 997.171 247.552C1007.02 255.179 1012.29 265.856 1012.98 279.584H974.499C974.222 274.869 972.488 271.195 969.299 268.56C966.11 265.787 962.019 264.4 957.027 264.4C952.728 264.4 949.262 265.579 946.627 267.936C943.992 270.155 942.675 273.413 942.675 277.712C942.675 282.427 944.894 286.101 949.331 288.736C953.768 291.371 960.702 294.213 970.131 297.264C979.56 300.453 987.187 303.504 993.011 306.416C998.974 309.328 1004.1 313.557 1008.4 319.104C1012.7 324.651 1014.85 331.792 1014.85 340.528C1014.85 348.848 1012.7 356.405 1008.4 363.2C1004.24 369.995 998.142 375.403 990.099 379.424C982.056 383.445 972.558 385.456 961.603 385.456ZM1054.63 255.872C1048.39 255.872 1043.26 254.069 1039.24 250.464C1035.35 246.72 1033.41 242.144 1033.41 236.736C1033.41 231.189 1035.35 226.613 1039.24 223.008C1043.26 219.264 1048.39 217.392 1054.63 217.392C1060.73 217.392 1065.72 219.264 1069.6 223.008C1073.63 226.613 1075.64 231.189 1075.64 236.736C1075.64 242.144 1073.63 246.72 1069.6 250.464C1065.72 254.069 1060.73 255.872 1054.63 255.872ZM1072.31 267.936V384H1036.74V267.936H1072.31ZM1168.8 266.688C1182.39 266.688 1193.21 271.125 1201.25 280C1209.43 288.736 1213.52 300.8 1213.52 316.192V384H1178.16V320.976C1178.16 313.211 1176.15 307.179 1172.13 302.88C1168.11 298.581 1162.7 296.432 1155.91 296.432C1149.11 296.432 1143.7 298.581 1139.68 302.88C1135.66 307.179 1133.65 313.211 1133.65 320.976V384H1098.08V267.936H1133.65V283.328C1137.26 278.197 1142.11 274.176 1148.21 271.264C1154.31 268.213 1161.18 266.688 1168.8 266.688ZM1282.34 266.272C1290.52 266.272 1297.66 267.936 1303.76 271.264C1310 274.592 1314.78 278.96 1318.11 284.368V267.936H1353.68V383.792C1353.68 394.469 1351.53 404.107 1347.23 412.704C1343.07 421.44 1336.62 428.373 1327.89 433.504C1319.29 438.635 1308.54 441.2 1295.65 441.2C1278.45 441.2 1264.52 437.109 1253.84 428.928C1243.16 420.885 1237.06 409.931 1235.54 396.064H1270.69C1271.8 400.501 1274.43 403.968 1278.59 406.464C1282.75 409.099 1287.88 410.416 1293.98 410.416C1301.33 410.416 1307.16 408.267 1311.46 403.968C1315.89 399.808 1318.11 393.083 1318.11 383.792V367.36C1314.65 372.768 1309.86 377.205 1303.76 380.672C1297.66 384 1290.52 385.664 1282.34 385.664C1272.77 385.664 1264.1 383.237 1256.34 378.384C1248.57 373.392 1242.4 366.389 1237.82 357.376C1233.39 348.224 1231.17 337.685 1231.17 325.76C1231.17 313.835 1233.39 303.365 1237.82 294.352C1242.4 285.339 1248.57 278.405 1256.34 273.552C1264.1 268.699 1272.77 266.272 1282.34 266.272ZM1318.11 325.968C1318.11 317.093 1315.62 310.091 1310.62 304.96C1305.77 299.829 1299.81 297.264 1292.74 297.264C1285.66 297.264 1279.63 299.829 1274.64 304.96C1269.79 309.952 1267.36 316.885 1267.36 325.76C1267.36 334.635 1269.79 341.707 1274.64 346.976C1279.63 352.107 1285.66 354.672 1292.74 354.672C1299.81 354.672 1305.77 352.107 1310.62 346.976C1315.62 341.845 1318.11 334.843 1318.11 325.968ZM1450.76 266.688C1464.07 266.688 1474.74 271.125 1482.79 280C1490.83 288.736 1494.85 300.8 1494.85 316.192V384H1459.49V320.976C1459.49 313.211 1457.48 307.179 1453.46 302.88C1449.44 298.581 1444.03 296.432 1437.24 296.432C1430.44 296.432 1425.03 298.581 1421.01 302.88C1416.99 307.179 1414.98 313.211 1414.98 320.976V384H1379.41V230.08H1414.98V283.536C1418.58 278.405 1423.51 274.315 1429.75 271.264C1435.99 268.213 1442.99 266.688 1450.76 266.688Z"/>
    </mask>
    <path d="M74.6 237.984C89.992 237.984 103.443 241.035 114.952 247.136C126.461 253.237 135.336 261.835 141.576 272.928C147.955 283.883 151.144 296.571 151.144 310.992C151.144 325.275 147.955 337.963 141.576 349.056C135.336 360.149 126.392 368.747 114.744 374.848C103.235 380.949 89.8533 384 74.6 384H19.896V237.984H74.6ZM72.312 353.216C85.7627 353.216 96.232 349.541 103.72 342.192C111.208 334.843 114.952 324.443 114.952 310.992C114.952 297.541 111.208 287.072 103.72 279.584C96.232 272.096 85.7627 268.352 72.312 268.352H55.464V353.216H72.312ZM188.909 255.872C182.669 255.872 177.538 254.069 173.517 250.464C169.634 246.72 167.693 242.144 167.693 236.736C167.693 231.189 169.634 226.613 173.517 223.008C177.538 219.264 182.669 217.392 188.909 217.392C195.01 217.392 200.002 219.264 203.885 223.008C207.906 226.613 209.917 231.189 209.917 236.736C209.917 242.144 207.906 246.72 203.885 250.464C200.002 254.069 195.01 255.872 188.909 255.872ZM206.589 267.936V384H171.021V267.936H206.589ZM267.933 230.08V384H232.365V230.08H267.933ZM329.277 284.368C332.743 278.96 337.527 274.592 343.629 271.264C349.73 267.936 356.871 266.272 365.053 266.272C374.621 266.272 383.287 268.699 391.053 273.552C398.818 278.405 404.919 285.339 409.357 294.352C413.933 303.365 416.221 313.835 416.221 325.76C416.221 337.685 413.933 348.224 409.357 357.376C404.919 366.389 398.818 373.392 391.053 378.384C383.287 383.237 374.621 385.664 365.053 385.664C357.01 385.664 349.869 384 343.629 380.672C337.527 377.344 332.743 373.045 329.277 367.776V439.328H293.709V267.936H329.277V284.368ZM380.029 325.76C380.029 316.885 377.533 309.952 372.541 304.96C367.687 299.829 361.655 297.264 354.445 297.264C347.373 297.264 341.341 299.829 336.349 304.96C331.495 310.091 329.069 317.093 329.069 325.968C329.069 334.843 331.495 341.845 336.349 346.976C341.341 352.107 347.373 354.672 354.445 354.672C361.517 354.672 367.549 352.107 372.541 346.976C377.533 341.707 380.029 334.635 380.029 325.76ZM470.448 287.28C474.608 280.901 479.808 275.909 486.048 272.304C492.288 268.56 499.222 266.688 506.848 266.688V304.336H497.072C488.198 304.336 481.542 306.277 477.104 310.16C472.667 313.904 470.448 320.56 470.448 330.128V384H434.88V267.936H470.448V287.28ZM633.257 324.096C633.257 327.424 633.049 330.891 632.633 334.496H552.137C552.692 341.707 554.98 347.253 559.001 351.136C563.161 354.88 568.222 356.752 574.185 356.752C583.06 356.752 589.23 353.008 592.697 345.52H630.553C628.612 353.147 625.076 360.011 619.945 366.112C614.953 372.213 608.644 376.997 601.017 380.464C593.39 383.931 584.862 385.664 575.433 385.664C564.062 385.664 553.94 383.237 545.065 378.384C536.19 373.531 529.257 366.597 524.265 357.584C519.273 348.571 516.777 338.032 516.777 325.968C516.777 313.904 519.204 303.365 524.057 294.352C529.049 285.339 535.982 278.405 544.857 273.552C553.732 268.699 563.924 266.272 575.433 266.272C586.665 266.272 596.649 268.629 605.385 273.344C614.121 278.059 620.916 284.784 625.769 293.52C630.761 302.256 633.257 312.448 633.257 324.096ZM596.857 314.736C596.857 308.635 594.777 303.781 590.617 300.176C586.457 296.571 581.257 294.768 575.017 294.768C569.054 294.768 563.993 296.501 559.833 299.968C555.812 303.435 553.316 308.357 552.345 314.736H596.857ZM761.429 324.096C761.429 327.424 761.221 330.891 760.805 334.496H680.309C680.864 341.707 683.152 347.253 687.173 351.136C691.333 354.88 696.394 356.752 702.357 356.752C711.232 356.752 717.402 353.008 720.869 345.52H758.725C756.784 353.147 753.248 360.011 748.117 366.112C743.125 372.213 736.816 376.997 729.189 380.464C721.562 383.931 713.034 385.664 703.605 385.664C692.234 385.664 682.112 383.237 673.237 378.384C664.362 373.531 657.429 366.597 652.437 357.584C647.445 348.571 644.949 338.032 644.949 325.968C644.949 313.904 647.376 303.365 652.229 294.352C657.221 285.339 664.154 278.405 673.029 273.552C681.904 268.699 692.096 266.272 703.605 266.272C714.837 266.272 724.821 268.629 733.557 273.344C742.293 278.059 749.088 284.784 753.941 293.52C758.933 302.256 761.429 312.448 761.429 324.096ZM725.029 314.736C725.029 308.635 722.949 303.781 718.789 300.176C714.629 296.571 709.429 294.768 703.189 294.768C697.226 294.768 692.165 296.501 688.005 299.968C683.984 303.435 681.488 308.357 680.517 314.736H725.029ZM844.881 353.84V384H826.785C813.889 384 803.836 380.88 796.625 374.64C789.414 368.261 785.809 357.931 785.809 343.648V297.472H771.665V267.936H785.809V239.648H821.377V267.936H844.673V297.472H821.377V344.064C821.377 347.531 822.209 350.027 823.873 351.552C825.537 353.077 828.31 353.84 832.193 353.84H844.881ZM961.603 385.456C950.926 385.456 941.358 383.723 932.899 380.256C924.44 376.789 917.646 371.659 912.515 364.864C907.523 358.069 904.888 349.888 904.611 340.32H942.467C943.022 345.728 944.894 349.888 948.083 352.8C951.272 355.573 955.432 356.96 960.563 356.96C965.832 356.96 969.992 355.781 973.043 353.424C976.094 350.928 977.619 347.531 977.619 343.232C977.619 339.627 976.371 336.645 973.875 334.288C971.518 331.931 968.536 329.989 964.931 328.464C961.464 326.939 956.472 325.205 949.955 323.264C940.526 320.352 932.83 317.44 926.867 314.528C920.904 311.616 915.774 307.317 911.475 301.632C907.176 295.947 905.027 288.528 905.027 279.376C905.027 265.787 909.95 255.179 919.795 247.552C929.64 239.787 942.467 235.904 958.275 235.904C974.36 235.904 987.326 239.787 997.171 247.552C1007.02 255.179 1012.29 265.856 1012.98 279.584H974.499C974.222 274.869 972.488 271.195 969.299 268.56C966.11 265.787 962.019 264.4 957.027 264.4C952.728 264.4 949.262 265.579 946.627 267.936C943.992 270.155 942.675 273.413 942.675 277.712C942.675 282.427 944.894 286.101 949.331 288.736C953.768 291.371 960.702 294.213 970.131 297.264C979.56 300.453 987.187 303.504 993.011 306.416C998.974 309.328 1004.1 313.557 1008.4 319.104C1012.7 324.651 1014.85 331.792 1014.85 340.528C1014.85 348.848 1012.7 356.405 1008.4 363.2C1004.24 369.995 998.142 375.403 990.099 379.424C982.056 383.445 972.558 385.456 961.603 385.456ZM1054.63 255.872C1048.39 255.872 1043.26 254.069 1039.24 250.464C1035.35 246.72 1033.41 242.144 1033.41 236.736C1033.41 231.189 1035.35 226.613 1039.24 223.008C1043.26 219.264 1048.39 217.392 1054.63 217.392C1060.73 217.392 1065.72 219.264 1069.6 223.008C1073.63 226.613 1075.64 231.189 1075.64 236.736C1075.64 242.144 1073.63 246.72 1069.6 250.464C1065.72 254.069 1060.73 255.872 1054.63 255.872ZM1072.31 267.936V384H1036.74V267.936H1072.31ZM1168.8 266.688C1182.39 266.688 1193.21 271.125 1201.25 280C1209.43 288.736 1213.52 300.8 1213.52 316.192V384H1178.16V320.976C1178.16 313.211 1176.15 307.179 1172.13 302.88C1168.11 298.581 1162.7 296.432 1155.91 296.432C1149.11 296.432 1143.7 298.581 1139.68 302.88C1135.66 307.179 1133.65 313.211 1133.65 320.976V384H1098.08V267.936H1133.65V283.328C1137.26 278.197 1142.11 274.176 1148.21 271.264C1154.31 268.213 1161.18 266.688 1168.8 266.688ZM1282.34 266.272C1290.52 266.272 1297.66 267.936 1303.76 271.264C1310 274.592 1314.78 278.96 1318.11 284.368V267.936H1353.68V383.792C1353.68 394.469 1351.53 404.107 1347.23 412.704C1343.07 421.44 1336.62 428.373 1327.89 433.504C1319.29 438.635 1308.54 441.2 1295.65 441.2C1278.45 441.2 1264.52 437.109 1253.84 428.928C1243.16 420.885 1237.06 409.931 1235.54 396.064H1270.69C1271.8 400.501 1274.43 403.968 1278.59 406.464C1282.75 409.099 1287.88 410.416 1293.98 410.416C1301.33 410.416 1307.16 408.267 1311.46 403.968C1315.89 399.808 1318.11 393.083 1318.11 383.792V367.36C1314.65 372.768 1309.86 377.205 1303.76 380.672C1297.66 384 1290.52 385.664 1282.34 385.664C1272.77 385.664 1264.1 383.237 1256.34 378.384C1248.57 373.392 1242.4 366.389 1237.82 357.376C1233.39 348.224 1231.17 337.685 1231.17 325.76C1231.17 313.835 1233.39 303.365 1237.82 294.352C1242.4 285.339 1248.57 278.405 1256.34 273.552C1264.1 268.699 1272.77 266.272 1282.34 266.272ZM1318.11 325.968C1318.11 317.093 1315.62 310.091 1310.62 304.96C1305.77 299.829 1299.81 297.264 1292.74 297.264C1285.66 297.264 1279.63 299.829 1274.64 304.96C1269.79 309.952 1267.36 316.885 1267.36 325.76C1267.36 334.635 1269.79 341.707 1274.64 346.976C1279.63 352.107 1285.66 354.672 1292.74 354.672C1299.81 354.672 1305.77 352.107 1310.62 346.976C1315.62 341.845 1318.11 334.843 1318.11 325.968ZM1450.76 266.688C1464.07 266.688 1474.74 271.125 1482.79 280C1490.83 288.736 1494.85 300.8 1494.85 316.192V384H1459.49V320.976C1459.49 313.211 1457.48 307.179 1453.46 302.88C1449.44 298.581 1444.03 296.432 1437.24 296.432C1430.44 296.432 1425.03 298.581 1421.01 302.88C1416.99 307.179 1414.98 313.211 1414.98 320.976V384H1379.41V230.08H1414.98V283.536C1418.58 278.405 1423.51 274.315 1429.75 271.264C1435.99 268.213 1442.99 266.688 1450.76 266.688Z" fill="url(#paint0_linear_302_22)" fill-opacity="0.5"/>
    <path d="M114.952 247.136L115.42 246.252L115.42 246.252L114.952 247.136ZM141.576 272.928L140.704 273.418L140.708 273.425L140.712 273.431L141.576 272.928ZM141.576 349.056L140.709 348.558L140.704 348.566L141.576 349.056ZM114.744 374.848L114.28 373.962L114.276 373.964L114.744 374.848ZM19.896 384H18.896V385H19.896V384ZM19.896 237.984V236.984H18.896V237.984H19.896ZM55.464 268.352V267.352H54.464V268.352H55.464ZM55.464 353.216H54.464V354.216H55.464V353.216ZM74.6 238.984C89.8583 238.984 103.143 242.007 114.484 248.02L115.42 246.252C103.743 240.062 90.1257 236.984 74.6 236.984V238.984ZM114.484 248.02C125.828 254.033 134.561 262.496 140.704 273.418L142.448 272.438C136.111 261.173 127.095 252.441 115.42 246.252L114.484 248.02ZM140.712 273.431C146.99 284.213 150.144 296.723 150.144 310.992H152.144C152.144 296.419 148.919 283.552 142.44 272.425L140.712 273.431ZM150.144 310.992C150.144 325.121 146.991 337.633 140.709 348.558L142.443 349.554C148.919 338.292 152.144 325.429 152.144 310.992H150.144ZM140.704 348.566C134.562 359.485 125.763 367.947 114.28 373.962L115.208 375.734C127.021 369.546 136.11 360.814 142.448 349.546L140.704 348.566ZM114.276 373.964C102.933 379.977 89.718 383 74.6 383V385C89.9887 385 103.536 381.921 115.212 375.732L114.276 373.964ZM74.6 383H19.896V385H74.6V383ZM20.896 384V237.984H18.896V384H20.896ZM19.896 238.984H74.6V236.984H19.896V238.984ZM72.312 354.216C85.9475 354.216 96.6968 350.486 104.42 342.906L103.02 341.478C95.7672 348.596 85.5778 352.216 72.312 352.216V354.216ZM104.42 342.906C112.15 335.319 115.952 324.632 115.952 310.992H113.952C113.952 324.254 110.266 334.366 103.02 341.478L104.42 342.906ZM115.952 310.992C115.952 297.351 112.15 286.6 104.427 278.877L103.013 280.291C110.266 287.544 113.952 297.731 113.952 310.992H115.952ZM104.427 278.877C96.7043 271.154 85.9526 267.352 72.312 267.352V269.352C85.5727 269.352 95.7597 273.038 103.013 280.291L104.427 278.877ZM72.312 267.352H55.464V269.352H72.312V267.352ZM54.464 268.352V353.216H56.464V268.352H54.464ZM55.464 354.216H72.312V352.216H55.464V354.216ZM173.517 250.464L172.823 251.184L172.836 251.196L172.849 251.209L173.517 250.464ZM173.517 223.008L174.197 223.741L174.198 223.74L173.517 223.008ZM203.885 223.008L203.191 223.728L203.204 223.74L203.217 223.753L203.885 223.008ZM203.885 250.464L204.565 251.197L204.566 251.196L203.885 250.464ZM206.589 267.936H207.589V266.936H206.589V267.936ZM206.589 384V385H207.589V384H206.589ZM171.021 384H170.021V385H171.021V384ZM171.021 267.936V266.936H170.021V267.936H171.021ZM188.909 254.872C182.875 254.872 177.994 253.135 174.185 249.719L172.849 251.209C177.082 255.004 182.463 256.872 188.909 256.872V254.872ZM174.211 249.744C170.525 246.189 168.693 241.873 168.693 236.736H166.693C166.693 242.415 168.744 247.251 172.823 251.184L174.211 249.744ZM168.693 236.736C168.693 231.453 170.529 227.147 174.197 223.741L172.837 222.275C168.74 226.08 166.693 230.926 166.693 236.736H168.693ZM174.198 223.74C178.009 220.192 182.885 218.392 188.909 218.392V216.392C182.453 216.392 177.067 218.336 172.836 222.276L174.198 223.74ZM188.909 218.392C194.788 218.392 199.519 220.188 203.191 223.728L204.579 222.288C200.485 218.34 195.232 216.392 188.909 216.392V218.392ZM203.217 223.753C207.021 227.162 208.917 231.465 208.917 236.736H210.917C210.917 230.914 208.792 226.064 204.553 222.263L203.217 223.753ZM208.917 236.736C208.917 241.861 207.025 246.174 203.204 249.732L204.566 251.196C208.787 247.266 210.917 242.427 210.917 236.736H208.917ZM203.205 249.731C199.535 253.139 194.799 254.872 188.909 254.872V256.872C195.222 256.872 200.47 255 204.565 251.197L203.205 249.731ZM205.589 267.936V384H207.589V267.936H205.589ZM206.589 383H171.021V385H206.589V383ZM172.021 384V267.936H170.021V384H172.021ZM171.021 268.936H206.589V266.936H171.021V268.936ZM267.933 230.08H268.933V229.08H267.933V230.08ZM267.933 384V385H268.933V384H267.933ZM232.365 384H231.365V385H232.365V384ZM232.365 230.08V229.08H231.365V230.08H232.365ZM266.933 230.08V384H268.933V230.08H266.933ZM267.933 383H232.365V385H267.933V383ZM233.365 384V230.08H231.365V384H233.365ZM232.365 231.08H267.933V229.08H232.365V231.08ZM329.277 284.368H328.277V287.781L330.118 284.908L329.277 284.368ZM343.629 271.264L343.15 270.386L343.15 270.386L343.629 271.264ZM391.053 273.552L390.523 274.4L390.523 274.4L391.053 273.552ZM409.357 294.352L408.459 294.794L408.465 294.805L409.357 294.352ZM409.357 357.376L408.462 356.929L408.459 356.934L409.357 357.376ZM391.053 378.384L391.583 379.232L391.593 379.225L391.053 378.384ZM343.629 380.672L343.15 381.55L343.158 381.554L343.629 380.672ZM329.277 367.776L330.112 367.226L328.277 364.437V367.776H329.277ZM329.277 439.328V440.328H330.277V439.328H329.277ZM293.709 439.328H292.709V440.328H293.709V439.328ZM293.709 267.936V266.936H292.709V267.936H293.709ZM329.277 267.936H330.277V266.936H329.277V267.936ZM372.541 304.96L371.814 305.647L371.824 305.657L371.833 305.667L372.541 304.96ZM336.349 304.96L335.632 304.263L335.622 304.273L336.349 304.96ZM336.349 346.976L335.622 347.663L335.632 347.673L336.349 346.976ZM372.541 346.976L373.257 347.673L373.266 347.664L372.541 346.976ZM330.118 284.908C333.487 279.653 338.141 275.396 344.107 272.142L343.15 270.386C336.913 273.788 331.999 278.267 328.435 283.828L330.118 284.908ZM344.107 272.142C350.038 268.907 357.009 267.272 365.053 267.272V265.272C356.734 265.272 349.422 266.965 343.15 270.386L344.107 272.142ZM365.053 267.272C374.442 267.272 382.923 269.651 390.523 274.4L391.583 272.704C383.651 267.747 374.799 265.272 365.053 265.272V267.272ZM390.523 274.4C398.115 279.145 404.096 285.931 408.459 294.794L410.254 293.91C405.742 284.747 399.521 277.665 391.583 272.704L390.523 274.4ZM408.465 294.805C412.958 303.655 415.221 313.964 415.221 325.76H417.221C417.221 313.706 414.907 303.076 410.248 293.899L408.465 294.805ZM415.221 325.76C415.221 337.556 412.958 347.937 408.462 356.929L410.251 357.823C414.907 348.511 417.221 337.815 417.221 325.76H415.221ZM408.459 356.934C404.095 365.799 398.111 372.658 390.512 377.543L391.593 379.225C399.525 374.126 405.743 366.979 410.254 357.818L408.459 356.934ZM390.523 377.536C382.923 382.285 374.442 384.664 365.053 384.664V386.664C374.799 386.664 383.651 384.189 391.583 379.232L390.523 377.536ZM365.053 384.664C357.151 384.664 350.175 383.03 344.099 379.79L343.158 381.554C349.562 384.97 356.868 386.664 365.053 386.664V384.664ZM344.107 379.794C338.135 376.536 333.48 372.345 330.112 367.226L328.441 368.326C332.007 373.746 336.919 378.152 343.15 381.55L344.107 379.794ZM328.277 367.776V439.328H330.277V367.776H328.277ZM329.277 438.328H293.709V440.328H329.277V438.328ZM294.709 439.328V267.936H292.709V439.328H294.709ZM293.709 268.936H329.277V266.936H293.709V268.936ZM328.277 267.936V284.368H330.277V267.936H328.277ZM381.029 325.76C381.029 316.692 378.473 309.478 373.248 304.253L371.833 305.667C376.593 310.426 379.029 317.079 379.029 325.76H381.029ZM373.267 304.273C368.22 298.938 361.923 296.264 354.445 296.264V298.264C361.387 298.264 367.154 300.721 371.814 305.647L373.267 304.273ZM354.445 296.264C347.099 296.264 340.809 298.941 335.632 304.263L337.065 305.657C341.872 300.718 347.646 298.264 354.445 298.264V296.264ZM335.622 304.273C330.551 309.634 328.069 316.906 328.069 325.968H330.069C330.069 317.28 332.439 310.548 337.075 305.647L335.622 304.273ZM328.069 325.968C328.069 335.03 330.551 342.302 335.622 347.663L337.075 346.289C332.439 341.388 330.069 334.656 330.069 325.968H328.069ZM335.632 347.673C340.809 352.995 347.099 355.672 354.445 355.672V353.672C347.646 353.672 341.872 351.218 337.065 346.279L335.632 347.673ZM354.445 355.672C361.79 355.672 368.08 352.995 373.257 347.673L371.824 346.279C367.017 351.218 361.243 353.672 354.445 353.672V355.672ZM373.266 347.664C378.472 342.169 381.029 334.83 381.029 325.76H379.029C379.029 334.439 376.593 341.244 371.815 346.288L373.266 347.664ZM470.448 287.28H469.448V290.644L471.286 287.826L470.448 287.28ZM486.048 272.304L486.549 273.17L486.556 273.166L486.563 273.161L486.048 272.304ZM506.848 266.688H507.848V265.688H506.848V266.688ZM506.848 304.336V305.336H507.848V304.336H506.848ZM477.104 310.16L477.749 310.924L477.756 310.918L477.763 310.913L477.104 310.16ZM470.448 384V385H471.448V384H470.448ZM434.88 384H433.88V385H434.88V384ZM434.88 267.936V266.936H433.88V267.936H434.88ZM470.448 267.936H471.448V266.936H470.448V267.936ZM471.286 287.826C475.365 281.571 480.452 276.692 486.549 273.17L485.548 271.438C479.164 275.126 473.852 280.231 469.611 286.734L471.286 287.826ZM486.563 273.161C492.64 269.515 499.394 267.688 506.848 267.688V265.688C499.05 265.688 491.937 267.605 485.534 271.447L486.563 273.161ZM505.848 266.688V304.336H507.848V266.688H505.848ZM506.848 303.336H497.072V305.336H506.848V303.336ZM497.072 303.336C488.074 303.336 481.138 305.302 476.446 309.407L477.763 310.913C481.945 307.253 488.321 305.336 497.072 305.336V303.336ZM476.46 309.396C471.686 313.424 469.448 320.452 469.448 330.128H471.448C471.448 320.668 473.649 314.384 477.749 310.924L476.46 309.396ZM469.448 330.128V384H471.448V330.128H469.448ZM470.448 383H434.88V385H470.448V383ZM435.88 384V267.936H433.88V384H435.88ZM434.88 268.936H470.448V266.936H434.88V268.936ZM469.448 267.936V287.28H471.448V267.936H469.448ZM632.633 334.496V335.496H633.524L633.627 334.611L632.633 334.496ZM552.137 334.496V333.496H551.057L551.14 334.573L552.137 334.496ZM559.001 351.136L558.307 351.855L558.319 351.868L558.332 351.879L559.001 351.136ZM592.697 345.52V344.52H592.058L591.79 345.1L592.697 345.52ZM630.553 345.52L631.522 345.767L631.84 344.52H630.553V345.52ZM619.945 366.112L619.18 365.468L619.171 365.479L619.945 366.112ZM601.017 380.464L601.431 381.374L601.017 380.464ZM545.065 378.384L544.585 379.261L544.585 379.261L545.065 378.384ZM524.265 357.584L525.14 357.099L525.14 357.099L524.265 357.584ZM524.057 294.352L523.182 293.867L523.177 293.878L524.057 294.352ZM544.857 273.552L545.337 274.429L545.337 274.429L544.857 273.552ZM605.385 273.344L604.91 274.224L604.91 274.224L605.385 273.344ZM625.769 293.52L624.895 294.006L624.901 294.016L625.769 293.52ZM596.857 314.736V315.736H597.857V314.736H596.857ZM590.617 300.176L591.272 299.42L591.272 299.42L590.617 300.176ZM559.833 299.968L559.193 299.2L559.187 299.205L559.18 299.211L559.833 299.968ZM552.345 314.736L551.357 314.586L551.181 315.736H552.345V314.736ZM632.257 324.096C632.257 327.382 632.052 330.811 631.64 334.381L633.627 334.611C634.047 330.971 634.257 327.466 634.257 324.096H632.257ZM632.633 333.496H552.137V335.496H632.633V333.496ZM551.14 334.573C551.708 341.954 554.062 347.758 558.307 351.855L559.696 350.417C555.897 346.749 553.676 341.459 553.134 334.419L551.14 334.573ZM558.332 351.879C562.688 355.8 567.993 357.752 574.185 357.752V355.752C568.452 355.752 563.634 353.96 559.67 350.393L558.332 351.879ZM574.185 357.752C578.763 357.752 582.714 356.785 585.988 354.799C589.267 352.81 591.8 349.838 593.605 345.94L591.79 345.1C590.127 348.69 587.842 351.334 584.95 353.089C582.054 354.847 578.481 355.752 574.185 355.752V357.752ZM592.697 346.52H630.553V344.52H592.697V346.52ZM629.584 345.273C627.68 352.752 624.215 359.481 619.18 365.468L620.71 366.756C625.937 360.541 629.543 353.541 631.522 345.767L629.584 345.273ZM619.171 365.479C614.282 371.454 608.099 376.146 600.603 379.554L601.431 381.374C609.188 377.848 615.624 372.973 620.719 366.745L619.171 365.479ZM600.603 379.554C593.122 382.954 584.738 384.664 575.433 384.664V386.664C584.987 386.664 593.659 384.907 601.431 381.374L600.603 379.554ZM575.433 384.664C564.209 384.664 554.255 382.27 545.545 377.507L544.585 379.261C553.625 384.205 563.916 386.664 575.433 386.664V384.664ZM545.545 377.507C536.84 372.746 530.042 365.95 525.14 357.099L523.39 358.068C528.472 367.244 535.541 374.315 544.585 379.261L545.545 377.507ZM525.14 357.099C520.243 348.258 517.777 337.892 517.777 325.968H515.777C515.777 338.172 518.303 348.883 523.39 358.068L525.14 357.099ZM517.777 325.968C517.777 314.04 520.176 303.67 524.938 294.826L523.177 293.878C518.232 303.061 515.777 313.768 515.777 325.968H517.777ZM524.932 294.836C529.834 285.986 536.632 279.19 545.337 274.429L544.377 272.675C535.333 277.621 528.264 284.692 523.182 293.867L524.932 294.836ZM545.337 274.429C554.045 269.667 564.068 267.272 575.433 267.272V265.272C563.78 265.272 553.418 267.73 544.377 272.675L545.337 274.429ZM575.433 267.272C586.521 267.272 596.338 269.598 604.91 274.224L605.86 272.464C596.96 267.661 586.809 265.272 575.433 265.272V267.272ZM604.91 274.224C613.477 278.847 620.134 285.435 624.895 294.006L626.643 293.034C621.698 284.133 614.765 277.27 605.86 272.464L604.91 274.224ZM624.901 294.016C629.794 302.579 632.257 312.594 632.257 324.096H634.257C634.257 312.302 631.729 301.933 626.637 293.024L624.901 294.016ZM597.857 314.736C597.857 308.38 595.677 303.238 591.272 299.42L589.962 300.932C593.878 304.325 595.857 308.889 595.857 314.736H597.857ZM591.272 299.42C586.906 295.636 581.463 293.768 575.017 293.768V295.768C581.051 295.768 586.008 297.505 589.962 300.932L591.272 299.42ZM575.017 293.768C568.846 293.768 563.551 295.568 559.193 299.2L560.473 300.736C564.435 297.435 569.263 295.768 575.017 295.768V293.768ZM559.18 299.211C554.941 302.865 552.355 308.024 551.357 314.586L553.334 314.886C554.277 308.691 556.682 304.005 560.486 300.725L559.18 299.211ZM552.345 315.736H596.857V313.736H552.345V315.736ZM760.805 334.496V335.496H761.696L761.798 334.611L760.805 334.496ZM680.309 334.496V333.496H679.229L679.312 334.573L680.309 334.496ZM687.173 351.136L686.478 351.855L686.491 351.868L686.504 351.879L687.173 351.136ZM720.869 345.52V344.52H720.23L719.962 345.1L720.869 345.52ZM758.725 345.52L759.694 345.767L760.011 344.52H758.725V345.52ZM748.117 366.112L747.352 365.468L747.343 365.479L748.117 366.112ZM729.189 380.464L729.603 381.374L729.189 380.464ZM673.237 378.384L672.757 379.261L672.757 379.261L673.237 378.384ZM652.437 357.584L653.312 357.099L653.312 357.099L652.437 357.584ZM652.229 294.352L651.354 293.867L651.349 293.878L652.229 294.352ZM673.029 273.552L673.509 274.429L673.509 274.429L673.029 273.552ZM733.557 273.344L733.082 274.224L733.082 274.224L733.557 273.344ZM753.941 293.52L753.067 294.006L753.073 294.016L753.941 293.52ZM725.029 314.736V315.736H726.029V314.736H725.029ZM718.789 300.176L719.444 299.42L719.444 299.42L718.789 300.176ZM688.005 299.968L687.365 299.2L687.358 299.205L687.352 299.211L688.005 299.968ZM680.517 314.736L679.528 314.586L679.353 315.736H680.517V314.736ZM760.429 324.096C760.429 327.382 760.224 330.811 759.812 334.381L761.798 334.611C762.218 330.971 762.429 327.466 762.429 324.096H760.429ZM760.805 333.496H680.309V335.496H760.805V333.496ZM679.312 334.573C679.88 341.954 682.234 347.758 686.478 351.855L687.868 350.417C684.069 346.749 681.848 341.459 681.306 334.419L679.312 334.573ZM686.504 351.879C690.86 355.8 696.165 357.752 702.357 357.752V355.752C696.624 355.752 691.806 353.96 687.842 350.393L686.504 351.879ZM702.357 357.752C706.935 357.752 710.886 356.785 714.16 354.799C717.438 352.81 719.972 349.838 721.776 345.94L719.962 345.1C718.299 348.69 716.014 351.334 713.122 353.089C710.226 354.847 706.653 355.752 702.357 355.752V357.752ZM720.869 346.52H758.725V344.52H720.869V346.52ZM757.756 345.273C755.852 352.752 752.387 359.481 747.352 365.468L748.882 366.756C754.109 360.541 757.715 353.541 759.694 345.767L757.756 345.273ZM747.343 365.479C742.454 371.454 736.271 376.146 728.775 379.554L729.603 381.374C737.36 377.848 743.796 372.973 748.891 366.745L747.343 365.479ZM728.775 379.554C721.294 382.954 712.91 384.664 703.605 384.664V386.664C713.159 386.664 721.831 384.907 729.603 381.374L728.775 379.554ZM703.605 384.664C692.381 384.664 682.427 382.27 673.717 377.507L672.757 379.261C681.796 384.205 692.088 386.664 703.605 386.664V384.664ZM673.717 377.507C665.012 372.746 658.214 365.95 653.312 357.099L651.562 358.068C656.644 367.244 663.713 374.315 672.757 379.261L673.717 377.507ZM653.312 357.099C648.415 348.258 645.949 337.892 645.949 325.968H643.949C643.949 338.172 646.475 348.883 651.562 358.068L653.312 357.099ZM645.949 325.968C645.949 314.04 648.348 303.67 653.109 294.826L651.349 293.878C646.404 303.061 643.949 313.768 643.949 325.968H645.949ZM653.104 294.836C658.006 285.986 664.804 279.19 673.509 274.429L672.549 272.675C663.505 277.621 656.436 284.692 651.354 293.867L653.104 294.836ZM673.509 274.429C682.217 269.667 692.24 267.272 703.605 267.272V265.272C691.951 265.272 681.59 267.73 672.549 272.675L673.509 274.429ZM703.605 267.272C714.693 267.272 724.51 269.598 733.082 274.224L734.032 272.464C725.132 267.661 714.981 265.272 703.605 265.272V267.272ZM733.082 274.224C741.649 278.847 748.306 285.435 753.067 294.006L754.815 293.034C749.87 284.133 742.937 277.27 734.032 272.464L733.082 274.224ZM753.073 294.016C757.966 302.579 760.429 312.594 760.429 324.096H762.429C762.429 312.302 759.9 301.933 754.809 293.024L753.073 294.016ZM726.029 314.736C726.029 308.38 723.848 303.238 719.444 299.42L718.134 300.932C722.05 304.325 724.029 308.889 724.029 314.736H726.029ZM719.444 299.42C715.078 295.636 709.635 293.768 703.189 293.768V295.768C709.223 295.768 714.18 297.505 718.134 300.932L719.444 299.42ZM703.189 293.768C697.018 293.768 691.723 295.568 687.365 299.2L688.645 300.736C692.607 297.435 697.435 295.768 703.189 295.768V293.768ZM687.352 299.211C683.113 302.865 680.527 308.024 679.528 314.586L681.506 314.886C682.448 308.691 684.854 304.005 688.658 300.725L687.352 299.211ZM680.517 315.736H725.029V313.736H680.517V315.736ZM844.881 353.84H845.881V352.84H844.881V353.84ZM844.881 384V385H845.881V384H844.881ZM796.625 374.64L795.962 375.389L795.97 375.396L796.625 374.64ZM785.809 297.472H786.809V296.472H785.809V297.472ZM771.665 297.472H770.665V298.472H771.665V297.472ZM771.665 267.936V266.936H770.665V267.936H771.665ZM785.809 267.936V268.936H786.809V267.936H785.809ZM785.809 239.648V238.648H784.809V239.648H785.809ZM821.377 239.648H822.377V238.648H821.377V239.648ZM821.377 267.936H820.377V268.936H821.377V267.936ZM844.673 267.936H845.673V266.936H844.673V267.936ZM844.673 297.472V298.472H845.673V297.472H844.673ZM821.377 297.472V296.472H820.377V297.472H821.377ZM823.873 351.552L823.197 352.289L823.197 352.289L823.873 351.552ZM843.881 353.84V384H845.881V353.84H843.881ZM844.881 383H826.785V385H844.881V383ZM826.785 383C814.044 383 804.253 379.919 797.279 373.884L795.97 375.396C803.418 381.841 813.734 385 826.785 385V383ZM797.287 373.891C790.378 367.779 786.809 357.784 786.809 343.648H784.809C784.809 358.077 788.451 368.744 795.962 375.389L797.287 373.891ZM786.809 343.648V297.472H784.809V343.648H786.809ZM785.809 296.472H771.665V298.472H785.809V296.472ZM772.665 297.472V267.936H770.665V297.472H772.665ZM771.665 268.936H785.809V266.936H771.665V268.936ZM786.809 267.936V239.648H784.809V267.936H786.809ZM785.809 240.648H821.377V238.648H785.809V240.648ZM820.377 239.648V267.936H822.377V239.648H820.377ZM821.377 268.936H844.673V266.936H821.377V268.936ZM843.673 267.936V297.472H845.673V267.936H843.673ZM844.673 296.472H821.377V298.472H844.673V296.472ZM820.377 297.472V344.064H822.377V297.472H820.377ZM820.377 344.064C820.377 347.662 821.238 350.493 823.197 352.289L824.549 350.815C823.18 349.56 822.377 347.399 822.377 344.064H820.377ZM823.197 352.289C825.139 354.069 828.226 354.84 832.193 354.84V352.84C828.395 352.84 825.934 352.085 824.549 350.815L823.197 352.289ZM832.193 354.84H844.881V352.84H832.193V354.84ZM932.899 380.256L932.52 381.181L932.52 381.181L932.899 380.256ZM912.515 364.864L911.709 365.456L911.717 365.467L912.515 364.864ZM904.611 340.32V339.32H903.582L903.611 340.349L904.611 340.32ZM942.467 340.32L943.462 340.218L943.37 339.32H942.467V340.32ZM948.083 352.8L947.409 353.538L947.418 353.547L947.427 353.555L948.083 352.8ZM973.043 353.424L973.654 354.215L973.665 354.207L973.676 354.198L973.043 353.424ZM973.875 334.288L973.168 334.995L973.178 335.005L973.188 335.015L973.875 334.288ZM964.931 328.464L964.528 329.379L964.535 329.382L964.541 329.385L964.931 328.464ZM949.955 323.264L949.66 324.22L949.67 324.222L949.955 323.264ZM926.867 314.528L926.428 315.427L926.867 314.528ZM911.475 301.632L912.273 301.029L912.273 301.029L911.475 301.632ZM919.795 247.552L920.407 248.343L920.414 248.337L919.795 247.552ZM997.171 247.552L996.552 248.337L996.559 248.343L997.171 247.552ZM1012.98 279.584V280.584H1014.03L1013.98 279.534L1012.98 279.584ZM974.499 279.584L973.501 279.643L973.556 280.584H974.499V279.584ZM969.299 268.56L968.643 269.315L968.652 269.323L968.662 269.331L969.299 268.56ZM946.627 267.936L947.271 268.701L947.283 268.691L947.294 268.681L946.627 267.936ZM949.331 288.736L949.842 287.876L949.842 287.876L949.331 288.736ZM970.131 297.264L970.451 296.317L970.439 296.313L970.131 297.264ZM993.011 306.416L992.564 307.31L992.572 307.315L993.011 306.416ZM1008.4 319.104L1007.61 319.717L1007.61 319.717L1008.4 319.104ZM1008.4 363.2L1007.56 362.665L1007.55 362.672L1007.55 362.678L1008.4 363.2ZM990.099 379.424L989.652 378.53L989.652 378.53L990.099 379.424ZM961.603 384.456C951.034 384.456 941.598 382.74 933.278 379.331L932.52 381.181C941.117 384.705 950.817 386.456 961.603 386.456V384.456ZM933.278 379.331C924.973 375.927 918.328 370.902 913.313 364.261L911.717 365.467C916.964 372.415 923.908 377.652 932.52 381.181L933.278 379.331ZM913.321 364.272C908.465 357.662 905.883 349.684 905.611 340.291L903.611 340.349C903.894 350.092 906.581 358.476 911.709 365.456L913.321 364.272ZM904.611 341.32H942.467V339.32H904.611V341.32ZM941.472 340.422C942.045 346.009 943.995 350.421 947.409 353.538L948.757 352.062C945.793 349.355 943.998 345.447 943.462 340.218L941.472 340.422ZM947.427 353.555C950.835 356.518 955.245 357.96 960.563 357.96V355.96C955.62 355.96 951.71 354.628 948.739 352.045L947.427 353.555ZM960.563 357.96C965.973 357.96 970.374 356.75 973.654 354.215L972.432 352.633C969.61 354.813 965.691 355.96 960.563 355.96V357.96ZM973.676 354.198C976.982 351.493 978.619 347.8 978.619 343.232H976.619C976.619 347.262 975.205 350.363 972.41 352.65L973.676 354.198ZM978.619 343.232C978.619 339.367 977.269 336.118 974.562 333.561L973.188 335.015C975.473 337.173 976.619 339.886 976.619 343.232H978.619ZM974.582 333.581C972.119 331.118 969.024 329.11 965.321 327.543L964.541 329.385C968.048 330.869 970.916 332.743 973.168 334.995L974.582 333.581ZM965.334 327.549C961.81 325.998 956.772 324.251 950.24 322.306L949.67 324.222C956.173 326.16 961.118 327.879 964.528 329.379L965.334 327.549ZM950.25 322.309C940.849 319.405 933.206 316.511 927.306 313.629L926.428 315.427C932.454 318.369 940.203 321.299 949.66 324.219L950.25 322.309ZM927.306 313.629C921.495 310.791 916.484 306.598 912.273 301.029L910.677 302.235C915.064 308.036 920.314 312.441 926.428 315.427L927.306 313.629ZM912.273 301.029C908.138 295.561 906.027 288.373 906.027 279.376H904.027C904.027 288.683 906.214 296.332 910.677 302.235L912.273 301.029ZM906.027 279.376C906.027 266.064 910.831 255.761 920.407 248.343L919.183 246.761C909.068 254.597 904.027 265.51 904.027 279.376H906.027ZM920.414 248.337C930.041 240.744 942.632 236.904 958.275 236.904V234.904C942.302 234.904 929.239 238.829 919.176 246.767L920.414 248.337ZM958.275 236.904C974.2 236.904 986.927 240.746 996.552 248.337L997.79 246.767C987.724 238.827 974.521 234.904 958.275 234.904V236.904ZM996.559 248.343C1006.15 255.771 1011.3 266.164 1011.98 279.634L1013.98 279.534C1013.27 265.548 1007.88 254.587 997.783 246.761L996.559 248.343ZM1012.98 278.584H974.499V280.584H1012.98V278.584ZM975.497 279.525C975.206 274.576 973.371 270.626 969.936 267.789L968.662 269.331C971.606 271.763 973.237 275.162 973.501 279.643L975.497 279.525ZM969.955 267.805C966.552 264.846 962.214 263.4 957.027 263.4V265.4C961.824 265.4 965.667 266.727 968.643 269.315L969.955 267.805ZM957.027 263.4C952.538 263.4 948.816 264.636 945.96 267.191L947.294 268.681C949.707 266.522 952.919 265.4 957.027 265.4V263.4ZM945.983 267.171C943.068 269.626 941.675 273.198 941.675 277.712H943.675C943.675 273.629 944.917 270.684 947.271 268.701L945.983 267.171ZM941.675 277.712C941.675 282.818 944.114 286.802 948.82 289.596L949.842 287.876C945.673 285.401 943.675 282.035 943.675 277.712H941.675ZM948.82 289.596C953.356 292.289 960.375 295.159 969.823 298.215L970.439 296.313C961.028 293.268 954.181 290.452 949.842 287.876L948.82 289.596ZM969.811 298.211C979.217 301.393 986.796 304.427 992.564 307.31L993.458 305.522C987.578 302.581 979.904 299.514 970.451 296.317L969.811 298.211ZM992.572 307.315C998.389 310.156 1003.4 314.284 1007.61 319.717L1009.19 318.491C1004.81 312.831 999.558 308.5 993.45 305.517L992.572 307.315ZM1007.61 319.717C1011.74 325.049 1013.85 331.958 1013.85 340.528H1015.85C1015.85 331.626 1013.66 324.253 1009.19 318.491L1007.61 319.717ZM1013.85 340.528C1013.85 348.666 1011.75 356.036 1007.56 362.665L1009.25 363.735C1013.65 356.774 1015.85 349.03 1015.85 340.528H1013.85ZM1007.55 362.678C1003.5 369.293 997.549 374.581 989.652 378.53L990.546 380.318C998.734 376.224 1004.99 370.696 1009.26 363.722L1007.55 362.678ZM989.652 378.53C981.775 382.468 972.436 384.456 961.603 384.456V386.456C972.68 386.456 982.338 384.423 990.546 380.318L989.652 378.53ZM1039.24 250.464L1038.54 251.184L1038.55 251.196L1038.57 251.209L1039.24 250.464ZM1039.24 223.008L1039.92 223.741L1039.92 223.74L1039.24 223.008ZM1069.6 223.008L1068.91 223.728L1068.92 223.74L1068.94 223.753L1069.6 223.008ZM1069.6 250.464L1070.28 251.197L1070.29 251.196L1069.6 250.464ZM1072.31 267.936H1073.31V266.936H1072.31V267.936ZM1072.31 384V385H1073.31V384H1072.31ZM1036.74 384H1035.74V385H1036.74V384ZM1036.74 267.936V266.936H1035.74V267.936H1036.74ZM1054.63 254.872C1048.59 254.872 1043.71 253.135 1039.9 249.719L1038.57 251.209C1042.8 255.004 1048.18 256.872 1054.63 256.872V254.872ZM1039.93 249.744C1036.24 246.189 1034.41 241.873 1034.41 236.736H1032.41C1032.41 242.415 1034.46 247.251 1038.54 251.184L1039.93 249.744ZM1034.41 236.736C1034.41 231.453 1036.25 227.147 1039.92 223.741L1038.56 222.275C1034.46 226.08 1032.41 230.926 1032.41 236.736H1034.41ZM1039.92 223.74C1043.73 220.192 1048.6 218.392 1054.63 218.392V216.392C1048.17 216.392 1042.79 218.336 1038.55 222.276L1039.92 223.74ZM1054.63 218.392C1060.51 218.392 1065.24 220.188 1068.91 223.728L1070.3 222.288C1066.2 218.34 1060.95 216.392 1054.63 216.392V218.392ZM1068.94 223.753C1072.74 227.162 1074.64 231.465 1074.64 236.736H1076.64C1076.64 230.914 1074.51 226.064 1070.27 222.263L1068.94 223.753ZM1074.64 236.736C1074.64 241.861 1072.74 246.174 1068.92 249.732L1070.29 251.196C1074.51 247.266 1076.64 242.427 1076.64 236.736H1074.64ZM1068.92 249.731C1065.25 253.139 1060.52 254.872 1054.63 254.872V256.872C1060.94 256.872 1066.19 255 1070.28 251.197L1068.92 249.731ZM1071.31 267.936V384H1073.31V267.936H1071.31ZM1072.31 383H1036.74V385H1072.31V383ZM1037.74 384V267.936H1035.74V384H1037.74ZM1036.74 268.936H1072.31V266.936H1036.74V268.936ZM1201.25 280L1200.51 280.672L1200.52 280.678L1200.52 280.684L1201.25 280ZM1213.52 384V385H1214.52V384H1213.52ZM1178.16 384H1177.16V385H1178.16V384ZM1172.13 302.88L1171.4 303.563L1171.4 303.563L1172.13 302.88ZM1139.68 302.88L1140.41 303.563L1140.41 303.563L1139.68 302.88ZM1133.65 384V385H1134.65V384H1133.65ZM1098.08 384H1097.08V385H1098.08V384ZM1098.08 267.936V266.936H1097.08V267.936H1098.08ZM1133.65 267.936H1134.65V266.936H1133.65V267.936ZM1133.65 283.328H1132.65V286.49L1134.47 283.903L1133.65 283.328ZM1148.21 271.264L1148.64 272.166L1148.65 272.163L1148.66 272.158L1148.21 271.264ZM1168.8 267.688C1182.15 267.688 1192.68 272.035 1200.51 280.672L1201.99 279.328C1193.73 270.215 1182.63 265.688 1168.8 265.688V267.688ZM1200.52 280.684C1208.48 289.186 1212.52 300.979 1212.52 316.192H1214.52C1214.52 300.621 1210.38 288.286 1201.98 279.316L1200.52 280.684ZM1212.52 316.192V384H1214.52V316.192H1212.52ZM1213.52 383H1178.16V385H1213.52V383ZM1179.16 384V320.976H1177.16V384H1179.16ZM1179.16 320.976C1179.16 313.04 1177.11 306.734 1172.86 302.197L1171.4 303.563C1175.2 307.624 1177.16 313.381 1177.16 320.976H1179.16ZM1172.86 302.197C1168.62 297.664 1162.93 295.432 1155.91 295.432V297.432C1162.47 297.432 1167.6 299.498 1171.4 303.563L1172.86 302.197ZM1155.91 295.432C1148.88 295.432 1143.19 297.664 1138.95 302.197L1140.41 303.563C1144.22 299.498 1149.34 297.432 1155.91 297.432V295.432ZM1138.95 302.197C1134.71 306.734 1132.65 313.04 1132.65 320.976H1134.65C1134.65 313.381 1136.62 307.624 1140.41 303.563L1138.95 302.197ZM1132.65 320.976V384H1134.65V320.976H1132.65ZM1133.65 383H1098.08V385H1133.65V383ZM1099.08 384V267.936H1097.08V384H1099.08ZM1098.08 268.936H1133.65V266.936H1098.08V268.936ZM1132.65 267.936V283.328H1134.65V267.936H1132.65ZM1134.47 283.903C1137.97 278.924 1142.68 275.01 1148.64 272.166L1147.78 270.362C1141.54 273.342 1136.55 277.471 1132.83 282.753L1134.47 283.903ZM1148.66 272.158C1154.61 269.185 1161.31 267.688 1168.8 267.688V265.688C1161.04 265.688 1154.02 267.242 1147.76 270.37L1148.66 272.158ZM1303.76 271.264L1303.28 272.142L1303.29 272.146L1303.76 271.264ZM1318.11 284.368L1317.26 284.892L1319.11 287.901V284.368H1318.11ZM1318.11 267.936V266.936H1317.11V267.936H1318.11ZM1353.68 267.936H1354.68V266.936H1353.68V267.936ZM1347.23 412.704L1346.34 412.257L1346.33 412.265L1346.33 412.274L1347.23 412.704ZM1327.89 433.504L1327.38 432.642L1327.38 432.645L1327.89 433.504ZM1253.84 428.928L1254.45 428.134L1254.44 428.129L1253.84 428.928ZM1235.54 396.064V395.064H1234.42L1234.54 396.173L1235.54 396.064ZM1270.69 396.064L1271.66 395.821L1271.47 395.064H1270.69V396.064ZM1278.59 406.464L1279.13 405.619L1279.12 405.613L1279.11 405.607L1278.59 406.464ZM1311.46 403.968L1310.77 403.238L1310.76 403.249L1310.75 403.261L1311.46 403.968ZM1318.11 367.36H1319.11V363.947L1317.27 366.82L1318.11 367.36ZM1303.76 380.672L1304.24 381.55L1304.25 381.546L1304.25 381.541L1303.76 380.672ZM1256.34 378.384L1255.79 379.225L1255.81 379.232L1256.34 378.384ZM1237.82 357.376L1236.92 357.812L1236.93 357.821L1236.93 357.829L1237.82 357.376ZM1237.82 294.352L1236.93 293.899L1236.93 293.91L1237.82 294.352ZM1256.34 273.552L1256.87 274.4L1256.87 274.4L1256.34 273.552ZM1310.62 304.96L1309.9 305.647L1309.91 305.657L1310.62 304.96ZM1274.64 304.96L1273.92 304.263L1273.92 304.263L1274.64 304.96ZM1274.64 346.976L1273.9 347.653L1273.91 347.664L1273.92 347.673L1274.64 346.976ZM1310.62 346.976L1309.91 346.279L1309.9 346.289L1310.62 346.976ZM1282.34 267.272C1290.38 267.272 1297.35 268.907 1303.28 272.142L1304.24 270.386C1297.97 266.965 1290.65 265.272 1282.34 265.272V267.272ZM1303.29 272.146C1309.39 275.401 1314.04 279.652 1317.26 284.892L1318.96 283.844C1315.53 278.268 1310.61 273.783 1304.23 270.382L1303.29 272.146ZM1319.11 284.368V267.936H1317.11V284.368H1319.11ZM1318.11 268.936H1353.68V266.936H1318.11V268.936ZM1352.68 267.936V383.792H1354.68V267.936H1352.68ZM1352.68 383.792C1352.68 394.332 1350.56 403.813 1346.34 412.257L1348.13 413.151C1352.5 404.4 1354.68 394.607 1354.68 383.792H1352.68ZM1346.33 412.274C1342.26 420.821 1335.95 427.607 1327.38 432.642L1328.39 434.366C1337.29 429.139 1343.88 422.059 1348.13 413.134L1346.33 412.274ZM1327.38 432.645C1318.97 437.66 1308.41 440.2 1295.65 440.2V442.2C1308.67 442.2 1319.61 439.609 1328.4 434.363L1327.38 432.645ZM1295.65 440.2C1278.61 440.2 1264.91 436.149 1254.45 428.134L1253.23 429.722C1264.13 438.07 1278.3 442.2 1295.65 442.2V440.2ZM1254.44 428.129C1243.99 420.26 1238.03 409.561 1236.53 395.955L1234.54 396.173C1236.1 410.301 1242.33 421.51 1253.24 429.727L1254.44 428.129ZM1235.54 397.064H1270.69V395.064H1235.54V397.064ZM1269.72 396.307C1270.9 401.018 1273.71 404.698 1278.08 407.321L1279.11 405.607C1275.16 403.238 1272.7 399.985 1271.66 395.821L1269.72 396.307ZM1278.06 407.309C1282.41 410.067 1287.74 411.416 1293.98 411.416V409.416C1288.03 409.416 1283.09 408.131 1279.13 405.619L1278.06 407.309ZM1293.98 411.416C1301.54 411.416 1307.64 409.199 1312.16 404.675L1310.75 403.261C1306.68 407.334 1301.13 409.416 1293.98 409.416V411.416ZM1312.14 404.698C1316.86 400.268 1319.11 393.215 1319.11 383.792H1317.11C1317.11 392.951 1314.92 399.348 1310.77 403.238L1312.14 404.698ZM1319.11 383.792V367.36H1317.11V383.792H1319.11ZM1317.27 366.82C1313.9 372.079 1309.24 376.408 1303.27 379.803L1304.25 381.541C1310.48 378.002 1315.39 373.457 1318.95 367.9L1317.27 366.82ZM1303.28 379.794C1297.35 383.029 1290.38 384.664 1282.34 384.664V386.664C1290.65 386.664 1297.97 384.971 1304.24 381.55L1303.28 379.794ZM1282.34 384.664C1272.95 384.664 1264.46 382.285 1256.87 377.536L1255.81 379.232C1263.74 384.189 1272.59 386.664 1282.34 386.664V384.664ZM1256.88 377.543C1249.27 372.656 1243.22 365.794 1238.72 356.923L1236.93 357.829C1241.58 366.985 1247.87 374.128 1255.79 379.225L1256.88 377.543ZM1238.72 356.94C1234.36 347.945 1232.17 337.56 1232.17 325.76H1230.17C1230.17 337.811 1232.41 348.503 1236.92 357.812L1238.72 356.94ZM1232.17 325.76C1232.17 313.959 1234.36 303.646 1238.72 294.794L1236.93 293.91C1232.41 303.084 1230.17 313.71 1230.17 325.76H1232.17ZM1238.72 294.805C1243.22 285.936 1249.27 279.147 1256.87 274.4L1255.81 272.704C1247.87 277.664 1241.58 284.741 1236.93 293.899L1238.72 294.805ZM1256.87 274.4C1264.46 269.651 1272.95 267.272 1282.34 267.272V265.272C1272.59 265.272 1263.74 267.747 1255.81 272.704L1256.87 274.4ZM1319.11 325.968C1319.11 316.899 1316.56 309.622 1311.34 304.263L1309.91 305.657C1314.68 310.559 1317.11 317.288 1317.11 325.968H1319.11ZM1311.35 304.273C1306.31 298.942 1300.08 296.264 1292.74 296.264V298.264C1299.53 298.264 1305.23 300.717 1309.9 305.647L1311.35 304.273ZM1292.74 296.264C1285.39 296.264 1279.1 298.941 1273.92 304.263L1275.36 305.657C1280.16 300.718 1285.94 298.264 1292.74 298.264V296.264ZM1273.92 304.263C1268.84 309.489 1266.36 316.7 1266.36 325.76H1268.36C1268.36 317.071 1270.73 310.415 1275.36 305.657L1273.92 304.263ZM1266.36 325.76C1266.36 334.823 1268.84 342.158 1273.9 347.653L1275.38 346.299C1270.73 341.255 1268.36 334.446 1268.36 325.76H1266.36ZM1273.92 347.673C1279.1 352.995 1285.39 355.672 1292.74 355.672V353.672C1285.94 353.672 1280.16 351.218 1275.36 346.279L1273.92 347.673ZM1292.74 355.672C1300.08 355.672 1306.31 352.994 1311.35 347.663L1309.9 346.289C1305.23 351.219 1299.53 353.672 1292.74 353.672V355.672ZM1311.34 347.673C1316.56 342.314 1319.11 335.037 1319.11 325.968H1317.11C1317.11 334.648 1314.68 341.377 1309.91 346.279L1311.34 347.673ZM1482.79 280L1482.05 280.672L1482.05 280.677L1482.79 280ZM1494.85 384V385H1495.85V384H1494.85ZM1459.49 384H1458.49V385H1459.49V384ZM1453.46 302.88L1452.73 303.563L1452.73 303.563L1453.46 302.88ZM1421.01 302.88L1421.74 303.563L1421.74 303.563L1421.01 302.88ZM1414.98 384V385H1415.98V384H1414.98ZM1379.41 384H1378.41V385H1379.41V384ZM1379.41 230.08V229.08H1378.41V230.08H1379.41ZM1414.98 230.08H1415.98V229.08H1414.98V230.08ZM1414.98 283.536H1413.98V286.698L1415.8 284.111L1414.98 283.536ZM1429.75 271.264L1429.31 270.366L1429.31 270.366L1429.75 271.264ZM1450.76 267.688C1463.82 267.688 1474.22 272.031 1482.05 280.672L1483.53 279.328C1475.27 270.22 1464.31 265.688 1450.76 265.688V267.688ZM1482.05 280.677C1489.88 289.179 1493.85 300.974 1493.85 316.192H1495.85C1495.85 300.626 1491.78 288.293 1483.52 279.323L1482.05 280.677ZM1493.85 316.192V384H1495.85V316.192H1493.85ZM1494.85 383H1459.49V385H1494.85V383ZM1460.49 384V320.976H1458.49V384H1460.49ZM1460.49 320.976C1460.49 313.04 1458.43 306.734 1454.19 302.197L1452.73 303.563C1456.53 307.624 1458.49 313.381 1458.49 320.976H1460.49ZM1454.19 302.197C1449.95 297.664 1444.26 295.432 1437.24 295.432V297.432C1443.8 297.432 1448.93 299.498 1452.73 303.563L1454.19 302.197ZM1437.24 295.432C1430.21 295.432 1424.52 297.664 1420.28 302.197L1421.74 303.563C1425.54 299.498 1430.67 297.432 1437.24 297.432V295.432ZM1420.28 302.197C1416.04 306.734 1413.98 313.04 1413.98 320.976H1415.98C1415.98 313.381 1417.94 307.624 1421.74 303.563L1420.28 302.197ZM1413.98 320.976V384H1415.98V320.976H1413.98ZM1414.98 383H1379.41V385H1414.98V383ZM1380.41 384V230.08H1378.41V384H1380.41ZM1379.41 231.08H1414.98V229.08H1379.41V231.08ZM1413.98 230.08V283.536H1415.98V230.08H1413.98ZM1415.8 284.111C1419.3 279.133 1424.08 275.147 1430.19 272.162L1429.31 270.366C1422.93 273.482 1417.87 277.678 1414.16 282.961L1415.8 284.111ZM1430.19 272.162C1436.27 269.186 1443.12 267.688 1450.76 267.688V265.688C1442.86 265.688 1435.7 267.241 1429.31 270.366L1430.19 272.162Z" fill="#888888" fill-opacity="0.5" mask="url(#path-1-outside-1_302_22)"/>
    <path d="M527.552 164.128C529.168 164.128 530.6 164.488 531.848 165.208C533.112 165.928 534.088 166.928 534.776 168.208C535.48 169.488 535.832 170.952 535.832 172.6C535.832 174.248 535.48 175.72 534.776 177.016C534.088 178.296 533.112 179.296 531.848 180.016C530.6 180.736 529.168 181.096 527.552 181.096C525.936 181.096 524.496 180.736 523.232 180.016C521.984 179.296 521.008 178.296 520.304 177.016C519.616 175.72 519.272 174.248 519.272 172.6C519.272 170.952 519.616 169.488 520.304 168.208C521.008 166.928 521.984 165.928 523.232 165.208C524.496 164.488 525.936 164.128 527.552 164.128ZM527.552 164.92C526.048 164.92 524.736 165.248 523.616 165.904C522.512 166.544 521.656 167.448 521.048 168.616C520.44 169.768 520.136 171.096 520.136 172.6C520.136 174.104 520.44 175.44 521.048 176.608C521.656 177.76 522.52 178.664 523.64 179.32C524.76 179.96 526.064 180.28 527.552 180.28C529.04 180.28 530.344 179.96 531.464 179.32C532.584 178.664 533.448 177.76 534.056 176.608C534.664 175.44 534.968 174.104 534.968 172.6C534.968 171.096 534.664 169.768 534.056 168.616C533.448 167.448 532.584 166.544 531.464 165.904C530.36 165.248 529.056 164.92 527.552 164.92ZM527.552 166.984C526.592 166.984 525.72 167.208 524.936 167.656C524.152 168.104 523.528 168.752 523.064 169.6C522.6 170.448 522.368 171.44 522.368 172.576C522.368 173.728 522.6 174.728 523.064 175.576C523.528 176.424 524.152 177.072 524.936 177.52C525.72 177.968 526.592 178.192 527.552 178.192C528.736 178.192 529.768 177.872 530.648 177.232C531.544 176.576 532.144 175.696 532.448 174.592H530.888C530.632 175.36 530.216 175.944 529.64 176.344C529.064 176.744 528.368 176.944 527.552 176.944C526.496 176.944 525.616 176.568 524.912 175.816C524.224 175.048 523.88 173.976 523.88 172.6C523.88 171.224 524.224 170.152 524.912 169.384C525.616 168.616 526.496 168.232 527.552 168.232C528.336 168.232 529.024 168.44 529.616 168.856C530.224 169.256 530.648 169.84 530.888 170.608H532.448C532.144 169.456 531.552 168.568 530.672 167.944C529.792 167.304 528.752 166.984 527.552 166.984ZM616.435 164.224C618.291 164.224 619.883 164.56 621.211 165.232C622.539 165.904 623.555 166.872 624.259 168.136C624.963 169.4 625.315 170.904 625.315 172.648C625.315 174.376 624.963 175.872 624.259 177.136C623.555 178.384 622.539 179.344 621.211 180.016C619.883 180.672 618.291 181 616.435 181H611.467V164.224H616.435ZM616.435 179.608C618.771 179.608 620.547 179 621.763 177.784C622.995 176.552 623.611 174.84 623.611 172.648C623.611 170.44 622.995 168.72 621.763 167.488C620.547 166.24 618.771 165.616 616.435 165.616H613.147V179.608H616.435ZM629.252 165.424C628.916 165.424 628.628 165.304 628.388 165.064C628.148 164.824 628.028 164.528 628.028 164.176C628.028 163.824 628.148 163.536 628.388 163.312C628.628 163.072 628.916 162.952 629.252 162.952C629.588 162.952 629.876 163.072 630.116 163.312C630.356 163.536 630.476 163.824 630.476 164.176C630.476 164.528 630.356 164.824 630.116 165.064C629.876 165.304 629.588 165.424 629.252 165.424ZM630.092 167.896V181H628.412V167.896H630.092ZM635.577 163.24V181H633.897V163.24H635.577ZM641.037 170.776C641.453 169.896 642.109 169.168 643.005 168.592C643.917 168 644.997 167.704 646.245 167.704C647.429 167.704 648.493 167.984 649.437 168.544C650.397 169.088 651.141 169.872 651.669 170.896C652.213 171.904 652.485 173.08 652.485 174.424C652.485 175.768 652.213 176.952 651.669 177.976C651.141 179 650.397 179.792 649.437 180.352C648.493 180.912 647.429 181.192 646.245 181.192C645.013 181.192 643.941 180.904 643.029 180.328C642.117 179.736 641.453 179 641.037 178.12V187.192H639.381V167.896H641.037V170.776ZM650.781 174.424C650.781 173.336 650.565 172.4 650.133 171.616C649.717 170.816 649.141 170.208 648.405 169.792C647.669 169.376 646.837 169.168 645.909 169.168C645.013 169.168 644.189 169.384 643.437 169.816C642.701 170.248 642.117 170.864 641.685 171.664C641.253 172.464 641.037 173.392 641.037 174.448C641.037 175.504 641.253 176.432 641.685 177.232C642.117 178.032 642.701 178.648 643.437 179.08C644.189 179.512 645.013 179.728 645.909 179.728C646.837 179.728 647.669 179.52 648.405 179.104C649.141 178.672 649.717 178.056 650.133 177.256C650.565 176.44 650.781 175.496 650.781 174.424ZM657.256 170.224C657.624 169.408 658.184 168.776 658.936 168.328C659.704 167.88 660.64 167.656 661.744 167.656V169.408H661.288C660.072 169.408 659.096 169.736 658.36 170.392C657.624 171.048 657.256 172.144 657.256 173.68V181H655.576V167.896H657.256V170.224ZM676.128 173.776C676.128 174.352 676.112 174.792 676.08 175.096H665.208C665.256 176.088 665.496 176.936 665.928 177.64C666.36 178.344 666.928 178.88 667.632 179.248C668.336 179.6 669.104 179.776 669.936 179.776C671.024 179.776 671.936 179.512 672.672 178.984C673.424 178.456 673.92 177.744 674.16 176.848H675.936C675.616 178.128 674.928 179.176 673.872 179.992C672.832 180.792 671.52 181.192 669.936 181.192C668.704 181.192 667.6 180.92 666.624 180.376C665.648 179.816 664.88 179.032 664.32 178.024C663.776 177 663.504 175.808 663.504 174.448C663.504 173.088 663.776 171.896 664.32 170.872C664.864 169.848 665.624 169.064 666.6 168.52C667.576 167.976 668.688 167.704 669.936 167.704C671.184 167.704 672.272 167.976 673.2 168.52C674.144 169.064 674.864 169.8 675.36 170.728C675.872 171.64 676.128 172.656 676.128 173.776ZM674.424 173.728C674.44 172.752 674.24 171.92 673.824 171.232C673.424 170.544 672.872 170.024 672.168 169.672C671.464 169.32 670.696 169.144 669.864 169.144C668.616 169.144 667.552 169.544 666.672 170.344C665.792 171.144 665.304 172.272 665.208 173.728H674.424ZM691.057 173.776C691.057 174.352 691.041 174.792 691.009 175.096H680.137C680.185 176.088 680.425 176.936 680.857 177.64C681.289 178.344 681.857 178.88 682.561 179.248C683.265 179.6 684.033 179.776 684.865 179.776C685.953 179.776 686.865 179.512 687.601 178.984C688.353 178.456 688.849 177.744 689.089 176.848H690.865C690.545 178.128 689.857 179.176 688.801 179.992C687.761 180.792 686.449 181.192 684.865 181.192C683.633 181.192 682.529 180.92 681.553 180.376C680.577 179.816 679.809 179.032 679.249 178.024C678.705 177 678.433 175.808 678.433 174.448C678.433 173.088 678.705 171.896 679.249 170.872C679.793 169.848 680.553 169.064 681.529 168.52C682.505 167.976 683.617 167.704 684.865 167.704C686.113 167.704 687.201 167.976 688.129 168.52C689.073 169.064 689.793 169.8 690.289 170.728C690.801 171.64 691.057 172.656 691.057 173.776ZM689.353 173.728C689.369 172.752 689.169 171.92 688.753 171.232C688.353 170.544 687.801 170.024 687.097 169.672C686.393 169.32 685.625 169.144 684.793 169.144C683.545 169.144 682.481 169.544 681.601 170.344C680.721 171.144 680.233 172.272 680.137 173.728H689.353ZM696.315 169.312V177.448C696.315 178.248 696.467 178.8 696.771 179.104C697.075 179.408 697.611 179.56 698.379 179.56H699.915V181H698.115C696.931 181 696.051 180.728 695.475 180.184C694.899 179.624 694.611 178.712 694.611 177.448V169.312H692.787V167.896H694.611V164.608H696.315V167.896H699.915V169.312H696.315ZM714.36 181.168C713.256 181.168 712.28 180.976 711.432 180.592C710.6 180.208 709.944 179.672 709.464 178.984C708.984 178.296 708.728 177.528 708.696 176.68H710.472C710.552 177.496 710.912 178.216 711.552 178.84C712.192 179.448 713.128 179.752 714.36 179.752C715.496 179.752 716.392 179.464 717.048 178.888C717.72 178.296 718.056 177.552 718.056 176.656C718.056 175.936 717.872 175.36 717.504 174.928C717.136 174.48 716.68 174.152 716.136 173.944C715.592 173.72 714.84 173.48 713.88 173.224C712.76 172.92 711.872 172.624 711.216 172.336C710.56 172.048 710 171.6 709.536 170.992C709.072 170.384 708.84 169.56 708.84 168.52C708.84 167.656 709.064 166.888 709.512 166.216C709.96 165.528 710.592 164.992 711.408 164.608C712.224 164.224 713.16 164.032 714.216 164.032C715.768 164.032 717.016 164.416 717.96 165.184C718.92 165.936 719.472 166.912 719.616 168.112H717.792C717.68 167.424 717.304 166.816 716.664 166.288C716.024 165.744 715.16 165.472 714.072 165.472C713.064 165.472 712.224 165.744 711.552 166.288C710.88 166.816 710.544 167.544 710.544 168.472C710.544 169.176 710.728 169.744 711.096 170.176C711.464 170.608 711.92 170.936 712.464 171.16C713.024 171.384 713.776 171.624 714.72 171.88C715.808 172.184 716.688 172.488 717.36 172.792C718.032 173.08 718.6 173.528 719.064 174.136C719.528 174.744 719.76 175.56 719.76 176.584C719.76 177.368 719.552 178.112 719.136 178.816C718.72 179.52 718.104 180.088 717.288 180.52C716.472 180.952 715.496 181.168 714.36 181.168ZM723.846 165.424C723.51 165.424 723.222 165.304 722.982 165.064C722.742 164.824 722.622 164.528 722.622 164.176C722.622 163.824 722.742 163.536 722.982 163.312C723.222 163.072 723.51 162.952 723.846 162.952C724.182 162.952 724.47 163.072 724.71 163.312C724.95 163.536 725.07 163.824 725.07 164.176C725.07 164.528 724.95 164.824 724.71 165.064C724.47 165.304 724.182 165.424 723.846 165.424ZM724.686 167.896V181H723.006V167.896H724.686ZM734.634 167.656C736.202 167.656 737.482 168.144 738.474 169.12C739.466 170.08 739.962 171.48 739.962 173.32V181H738.306V173.512C738.306 172.088 737.946 171 737.226 170.248C736.522 169.496 735.554 169.12 734.322 169.12C733.058 169.12 732.05 169.52 731.298 170.32C730.546 171.12 730.17 172.296 730.17 173.848V181H728.49V167.896H730.17V170.128C730.586 169.328 731.186 168.72 731.97 168.304C732.754 167.872 733.642 167.656 734.634 167.656ZM749.174 167.704C750.406 167.704 751.478 167.992 752.39 168.568C753.302 169.144 753.958 169.872 754.358 170.752V167.896H756.038V181.336C756.038 182.536 755.774 183.6 755.246 184.528C754.734 185.456 754.014 186.168 753.086 186.664C752.158 187.176 751.102 187.432 749.918 187.432C748.238 187.432 746.838 187.032 745.718 186.232C744.614 185.432 743.926 184.344 743.654 182.968H745.31C745.598 183.88 746.142 184.608 746.942 185.152C747.758 185.696 748.75 185.968 749.918 185.968C750.766 185.968 751.526 185.784 752.198 185.416C752.87 185.064 753.398 184.536 753.782 183.832C754.166 183.128 754.358 182.296 754.358 181.336V178.096C753.942 178.992 753.278 179.736 752.366 180.328C751.47 180.904 750.406 181.192 749.174 181.192C747.974 181.192 746.894 180.912 745.934 180.352C744.99 179.792 744.246 179 743.702 177.976C743.174 176.952 742.91 175.768 742.91 174.424C742.91 173.08 743.174 171.904 743.702 170.896C744.246 169.872 744.99 169.088 745.934 168.544C746.894 167.984 747.974 167.704 749.174 167.704ZM754.358 174.448C754.358 173.392 754.142 172.464 753.71 171.664C753.278 170.864 752.686 170.248 751.934 169.816C751.198 169.384 750.382 169.168 749.486 169.168C748.558 169.168 747.726 169.376 746.99 169.792C746.254 170.208 745.67 170.816 745.238 171.616C744.822 172.4 744.614 173.336 744.614 174.424C744.614 175.496 744.822 176.44 745.238 177.256C745.67 178.056 746.254 178.672 746.99 179.104C747.726 179.52 748.558 179.728 749.486 179.728C750.382 179.728 751.198 179.512 751.934 179.08C752.686 178.648 753.278 178.032 753.71 177.232C754.142 176.432 754.358 175.504 754.358 174.448ZM766.113 167.656C767.105 167.656 767.993 167.864 768.777 168.28C769.577 168.696 770.201 169.336 770.649 170.2C771.113 171.048 771.345 172.088 771.345 173.32V181H769.689V173.512C769.689 172.088 769.329 171 768.609 170.248C767.905 169.496 766.937 169.12 765.705 169.12C764.441 169.12 763.433 169.52 762.681 170.32C761.929 171.12 761.553 172.296 761.553 173.848V181H759.873V163.24H761.553V170.128C761.969 169.344 762.577 168.736 763.377 168.304C764.193 167.872 765.105 167.656 766.113 167.656ZM775.349 181.12C774.997 181.12 774.701 181 774.461 180.76C774.237 180.52 774.125 180.224 774.125 179.872C774.125 179.52 774.237 179.232 774.461 179.008C774.701 178.768 774.997 178.648 775.349 178.648C775.685 178.648 775.965 178.768 776.189 179.008C776.429 179.232 776.549 179.52 776.549 179.872C776.549 180.224 776.429 180.52 776.189 180.76C775.965 181 775.685 181.12 775.349 181.12ZM795.726 177.016H788.094L786.63 181H784.854L790.974 164.44H792.87L798.966 181H797.19L795.726 177.016ZM795.222 175.624L791.91 166.552L788.598 175.624H795.222ZM803.342 163.24V181H801.662V163.24H803.342ZM808.827 163.24V181H807.147V163.24H808.827ZM820.897 170.224C821.265 169.408 821.825 168.776 822.577 168.328C823.345 167.88 824.281 167.656 825.385 167.656V169.408H824.929C823.713 169.408 822.737 169.736 822.001 170.392C821.265 171.048 820.897 172.144 820.897 173.68V181H819.217V167.896H820.897V170.224ZM828.752 165.424C828.416 165.424 828.128 165.304 827.888 165.064C827.648 164.824 827.528 164.528 827.528 164.176C827.528 163.824 827.648 163.536 827.888 163.312C828.128 163.072 828.416 162.952 828.752 162.952C829.088 162.952 829.376 163.072 829.616 163.312C829.856 163.536 829.976 163.824 829.976 164.176C829.976 164.528 829.856 164.824 829.616 165.064C829.376 165.304 829.088 165.424 828.752 165.424ZM829.592 167.896V181H827.912V167.896H829.592ZM838.893 167.704C840.125 167.704 841.197 167.992 842.109 168.568C843.021 169.144 843.677 169.872 844.077 170.752V167.896H845.757V181.336C845.757 182.536 845.493 183.6 844.965 184.528C844.453 185.456 843.733 186.168 842.805 186.664C841.877 187.176 840.821 187.432 839.637 187.432C837.957 187.432 836.557 187.032 835.437 186.232C834.333 185.432 833.645 184.344 833.373 182.968H835.029C835.317 183.88 835.861 184.608 836.661 185.152C837.477 185.696 838.469 185.968 839.637 185.968C840.485 185.968 841.245 185.784 841.917 185.416C842.589 185.064 843.117 184.536 843.501 183.832C843.885 183.128 844.077 182.296 844.077 181.336V178.096C843.661 178.992 842.997 179.736 842.085 180.328C841.189 180.904 840.125 181.192 838.893 181.192C837.693 181.192 836.613 180.912 835.653 180.352C834.709 179.792 833.965 179 833.421 177.976C832.893 176.952 832.629 175.768 832.629 174.424C832.629 173.08 832.893 171.904 833.421 170.896C833.965 169.872 834.709 169.088 835.653 168.544C836.613 167.984 837.693 167.704 838.893 167.704ZM844.077 174.448C844.077 173.392 843.861 172.464 843.429 171.664C842.997 170.864 842.405 170.248 841.653 169.816C840.917 169.384 840.101 169.168 839.205 169.168C838.277 169.168 837.445 169.376 836.709 169.792C835.973 170.208 835.389 170.816 834.957 171.616C834.541 172.4 834.333 173.336 834.333 174.424C834.333 175.496 834.541 176.44 834.957 177.256C835.389 178.056 835.973 178.672 836.709 179.104C837.445 179.52 838.277 179.728 839.205 179.728C840.101 179.728 840.917 179.512 841.653 179.08C842.405 178.648 842.997 178.032 843.429 177.232C843.861 176.432 844.077 175.504 844.077 174.448ZM855.832 167.656C856.824 167.656 857.712 167.864 858.496 168.28C859.296 168.696 859.92 169.336 860.368 170.2C860.832 171.048 861.064 172.088 861.064 173.32V181H859.408V173.512C859.408 172.088 859.048 171 858.328 170.248C857.624 169.496 856.656 169.12 855.424 169.12C854.16 169.12 853.152 169.52 852.4 170.32C851.648 171.12 851.272 172.296 851.272 173.848V181H849.592V163.24H851.272V170.128C851.688 169.344 852.296 168.736 853.096 168.304C853.912 167.872 854.824 167.656 855.832 167.656ZM866.963 169.312V177.448C866.963 178.248 867.115 178.8 867.419 179.104C867.723 179.408 868.259 179.56 869.027 179.56H870.563V181H868.763C867.579 181 866.699 180.728 866.123 180.184C865.547 179.624 865.259 178.712 865.259 177.448V169.312H863.435V167.896H865.259V164.608H866.963V167.896H870.563V169.312H866.963ZM877.846 181.192C876.342 181.192 875.11 180.848 874.15 180.16C873.206 179.456 872.678 178.504 872.566 177.304H874.294C874.374 178.04 874.718 178.64 875.326 179.104C875.95 179.552 876.782 179.776 877.822 179.776C878.734 179.776 879.446 179.56 879.958 179.128C880.486 178.696 880.75 178.16 880.75 177.52C880.75 177.072 880.606 176.704 880.318 176.416C880.03 176.128 879.662 175.904 879.214 175.744C878.782 175.568 878.19 175.384 877.438 175.192C876.462 174.936 875.67 174.68 875.062 174.424C874.454 174.168 873.934 173.792 873.502 173.296C873.086 172.784 872.878 172.104 872.878 171.256C872.878 170.616 873.07 170.024 873.454 169.48C873.838 168.936 874.382 168.504 875.086 168.184C875.79 167.864 876.59 167.704 877.486 167.704C878.894 167.704 880.03 168.064 880.894 168.784C881.758 169.488 882.222 170.464 882.286 171.712H880.606C880.558 170.944 880.254 170.328 879.694 169.864C879.15 169.384 878.398 169.144 877.438 169.144C876.59 169.144 875.902 169.344 875.374 169.744C874.846 170.144 874.582 170.64 874.582 171.232C874.582 171.744 874.734 172.168 875.038 172.504C875.358 172.824 875.75 173.08 876.214 173.272C876.678 173.448 877.302 173.648 878.086 173.872C879.03 174.128 879.782 174.376 880.342 174.616C880.902 174.856 881.382 175.208 881.782 175.672C882.182 176.136 882.39 176.752 882.406 177.52C882.406 178.224 882.214 178.856 881.83 179.416C881.446 179.96 880.91 180.392 880.222 180.712C879.534 181.032 878.742 181.192 877.846 181.192ZM893.834 170.224C894.202 169.408 894.762 168.776 895.514 168.328C896.282 167.88 897.218 167.656 898.322 167.656V169.408H897.866C896.65 169.408 895.674 169.736 894.938 170.392C894.202 171.048 893.834 172.144 893.834 173.68V181H892.154V167.896H893.834V170.224ZM912.706 173.776C912.706 174.352 912.69 174.792 912.658 175.096H901.786C901.834 176.088 902.074 176.936 902.506 177.64C902.938 178.344 903.506 178.88 904.21 179.248C904.914 179.6 905.682 179.776 906.514 179.776C907.602 179.776 908.514 179.512 909.25 178.984C910.002 178.456 910.498 177.744 910.738 176.848H912.514C912.194 178.128 911.506 179.176 910.45 179.992C909.41 180.792 908.098 181.192 906.514 181.192C905.282 181.192 904.178 180.92 903.202 180.376C902.226 179.816 901.458 179.032 900.898 178.024C900.354 177 900.082 175.808 900.082 174.448C900.082 173.088 900.354 171.896 900.898 170.872C901.442 169.848 902.202 169.064 903.178 168.52C904.154 167.976 905.266 167.704 906.514 167.704C907.762 167.704 908.85 167.976 909.778 168.52C910.722 169.064 911.442 169.8 911.938 170.728C912.45 171.64 912.706 172.656 912.706 173.776ZM911.002 173.728C911.018 172.752 910.818 171.92 910.402 171.232C910.002 170.544 909.45 170.024 908.746 169.672C908.042 169.32 907.274 169.144 906.442 169.144C905.194 169.144 904.13 169.544 903.25 170.344C902.37 171.144 901.882 172.272 901.786 173.728H911.002ZM920.291 181.192C918.787 181.192 917.555 180.848 916.595 180.16C915.651 179.456 915.123 178.504 915.011 177.304H916.739C916.819 178.04 917.163 178.64 917.771 179.104C918.395 179.552 919.227 179.776 920.267 179.776C921.179 179.776 921.891 179.56 922.403 179.128C922.931 178.696 923.195 178.16 923.195 177.52C923.195 177.072 923.051 176.704 922.763 176.416C922.475 176.128 922.107 175.904 921.659 175.744C921.227 175.568 920.635 175.384 919.883 175.192C918.907 174.936 918.115 174.68 917.507 174.424C916.899 174.168 916.379 173.792 915.947 173.296C915.531 172.784 915.323 172.104 915.323 171.256C915.323 170.616 915.515 170.024 915.899 169.48C916.283 168.936 916.827 168.504 917.531 168.184C918.235 167.864 919.035 167.704 919.931 167.704C921.339 167.704 922.475 168.064 923.339 168.784C924.203 169.488 924.667 170.464 924.731 171.712H923.051C923.003 170.944 922.699 170.328 922.139 169.864C921.595 169.384 920.843 169.144 919.883 169.144C919.035 169.144 918.347 169.344 917.819 169.744C917.291 170.144 917.027 170.64 917.027 171.232C917.027 171.744 917.179 172.168 917.483 172.504C917.803 172.824 918.195 173.08 918.659 173.272C919.123 173.448 919.747 173.648 920.531 173.872C921.475 174.128 922.227 174.376 922.787 174.616C923.347 174.856 923.827 175.208 924.227 175.672C924.627 176.136 924.835 176.752 924.851 177.52C924.851 178.224 924.659 178.856 924.275 179.416C923.891 179.96 923.355 180.392 922.667 180.712C921.979 181.032 921.187 181.192 920.291 181.192ZM939.87 173.776C939.87 174.352 939.854 174.792 939.822 175.096H928.95C928.998 176.088 929.238 176.936 929.67 177.64C930.102 178.344 930.67 178.88 931.374 179.248C932.078 179.6 932.846 179.776 933.678 179.776C934.766 179.776 935.678 179.512 936.414 178.984C937.166 178.456 937.662 177.744 937.902 176.848H939.678C939.358 178.128 938.67 179.176 937.614 179.992C936.574 180.792 935.262 181.192 933.678 181.192C932.446 181.192 931.342 180.92 930.366 180.376C929.39 179.816 928.622 179.032 928.062 178.024C927.518 177 927.246 175.808 927.246 174.448C927.246 173.088 927.518 171.896 928.062 170.872C928.606 169.848 929.366 169.064 930.342 168.52C931.318 167.976 932.43 167.704 933.678 167.704C934.926 167.704 936.014 167.976 936.942 168.52C937.886 169.064 938.606 169.8 939.102 170.728C939.614 171.64 939.87 172.656 939.87 173.776ZM938.166 173.728C938.182 172.752 937.982 171.92 937.566 171.232C937.166 170.544 936.614 170.024 935.91 169.672C935.206 169.32 934.438 169.144 933.606 169.144C932.358 169.144 931.294 169.544 930.414 170.344C929.534 171.144 929.046 172.272 928.95 173.728H938.166ZM944.623 170.224C944.991 169.408 945.551 168.776 946.303 168.328C947.071 167.88 948.007 167.656 949.111 167.656V169.408H948.655C947.439 169.408 946.463 169.736 945.727 170.392C944.991 171.048 944.623 172.144 944.623 173.68V181H942.943V167.896H944.623V170.224ZM956.295 179.368L960.711 167.896H962.487L957.231 181H955.335L950.079 167.896H951.879L956.295 179.368ZM976.62 173.776C976.62 174.352 976.604 174.792 976.572 175.096H965.7C965.748 176.088 965.988 176.936 966.42 177.64C966.852 178.344 967.42 178.88 968.124 179.248C968.828 179.6 969.596 179.776 970.428 179.776C971.516 179.776 972.428 179.512 973.164 178.984C973.916 178.456 974.412 177.744 974.652 176.848H976.428C976.108 178.128 975.42 179.176 974.364 179.992C973.324 180.792 972.012 181.192 970.428 181.192C969.196 181.192 968.092 180.92 967.116 180.376C966.14 179.816 965.372 179.032 964.812 178.024C964.268 177 963.996 175.808 963.996 174.448C963.996 173.088 964.268 171.896 964.812 170.872C965.356 169.848 966.116 169.064 967.092 168.52C968.068 167.976 969.18 167.704 970.428 167.704C971.676 167.704 972.764 167.976 973.692 168.52C974.636 169.064 975.356 169.8 975.852 170.728C976.364 171.64 976.62 172.656 976.62 173.776ZM974.916 173.728C974.932 172.752 974.732 171.92 974.316 171.232C973.916 170.544 973.364 170.024 972.66 169.672C971.956 169.32 971.188 169.144 970.356 169.144C969.108 169.144 968.044 169.544 967.164 170.344C966.284 171.144 965.796 172.272 965.7 173.728H974.916ZM978.925 174.424C978.925 173.08 979.197 171.904 979.741 170.896C980.285 169.872 981.029 169.088 981.973 168.544C982.933 167.984 984.013 167.704 985.213 167.704C986.365 167.704 987.405 167.984 988.333 168.544C989.261 169.104 989.941 169.832 990.373 170.728V163.24H992.053V181H990.373V178.072C989.973 178.984 989.317 179.736 988.405 180.328C987.493 180.904 986.421 181.192 985.189 181.192C983.989 181.192 982.909 180.912 981.949 180.352C981.005 179.792 980.261 179 979.717 177.976C979.189 176.952 978.925 175.768 978.925 174.424ZM990.373 174.448C990.373 173.392 990.157 172.464 989.725 171.664C989.293 170.864 988.701 170.248 987.949 169.816C987.213 169.384 986.397 169.168 985.501 169.168C984.573 169.168 983.741 169.376 983.005 169.792C982.269 170.208 981.685 170.816 981.253 171.616C980.837 172.4 980.629 173.336 980.629 174.424C980.629 175.496 980.837 176.44 981.253 177.256C981.685 178.056 982.269 178.672 983.005 179.104C983.741 179.52 984.573 179.728 985.501 179.728C986.397 179.728 987.213 179.512 987.949 179.08C988.701 178.648 989.293 178.032 989.725 177.232C990.157 176.432 990.373 175.504 990.373 174.448ZM996.177 181.12C995.825 181.12 995.529 181 995.289 180.76C995.065 180.52 994.953 180.224 994.953 179.872C994.953 179.52 995.065 179.232 995.289 179.008C995.529 178.768 995.825 178.648 996.177 178.648C996.513 178.648 996.793 178.768 997.017 179.008C997.257 179.232 997.377 179.52 997.377 179.872C997.377 180.224 997.257 180.52 997.017 180.76C996.793 181 996.513 181.12 996.177 181.12Z" fill="#888888"/>
    <path d="M544.724 179.68C547.668 177.472 549.94 175.496 551.54 173.752C553.156 171.992 553.964 170.272 553.964 168.592C553.964 167.488 553.684 166.608 553.124 165.952C552.58 165.28 551.684 164.944 550.436 164.944C549.22 164.944 548.276 165.328 547.604 166.096C546.948 166.848 546.58 167.856 546.5 169.12H544.868C544.964 167.344 545.508 165.968 546.5 164.992C547.508 164 548.82 163.504 550.436 163.504C551.988 163.504 553.244 163.944 554.204 164.824C555.164 165.688 555.644 166.92 555.644 168.52C555.644 170.456 554.836 172.336 553.22 174.16C551.62 175.968 549.644 177.736 547.292 179.464H556.172V180.88H544.724V179.68ZM558.794 172.24C558.794 169.488 559.218 167.352 560.066 165.832C560.914 164.312 562.434 163.552 564.626 163.552C566.818 163.552 568.338 164.312 569.186 165.832C570.034 167.352 570.458 169.488 570.458 172.24C570.458 175.04 570.034 177.208 569.186 178.744C568.338 180.28 566.818 181.048 564.626 181.048C562.418 181.048 560.89 180.28 560.042 178.744C559.21 177.208 558.794 175.04 558.794 172.24ZM568.802 172.24C568.802 170.752 568.698 169.496 568.49 168.472C568.282 167.448 567.874 166.624 567.266 166C566.658 165.376 565.778 165.064 564.626 165.064C563.474 165.064 562.594 165.376 561.986 166C561.378 166.624 560.97 167.448 560.762 168.472C560.554 169.496 560.45 170.752 560.45 172.24C560.45 173.776 560.554 175.064 560.762 176.104C560.97 177.128 561.378 177.952 561.986 178.576C562.594 179.2 563.474 179.512 564.626 179.512C565.778 179.512 566.658 179.2 567.266 178.576C567.874 177.952 568.282 177.128 568.49 176.104C568.698 175.064 568.802 173.776 568.802 172.24ZM573.247 179.68C576.191 177.472 578.463 175.496 580.063 173.752C581.679 171.992 582.487 170.272 582.487 168.592C582.487 167.488 582.207 166.608 581.647 165.952C581.103 165.28 580.207 164.944 578.959 164.944C577.743 164.944 576.799 165.328 576.127 166.096C575.471 166.848 575.103 167.856 575.023 169.12H573.391C573.487 167.344 574.031 165.968 575.023 164.992C576.031 164 577.343 163.504 578.959 163.504C580.511 163.504 581.767 163.944 582.727 164.824C583.687 165.688 584.167 166.92 584.167 168.52C584.167 170.456 583.359 172.336 581.743 174.16C580.143 175.968 578.167 177.736 575.815 179.464H584.695V180.88H573.247V179.68ZM593.726 172.624L598.814 181H596.942L592.67 173.992L588.614 181H586.742L591.806 172.552L586.742 164.224H588.614L592.862 171.208L596.966 164.224H598.838L593.726 172.624Z" fill="#EF652A"/>
    <mask id="path-5-inside-2_302_22" fill="white">
    <path d="M0 0H1512V89C1512 108.33 1496.33 124 1477 124H35C15.67 124 0 108.33 0 89V0Z"/>
    </mask>
    <path d="M0 0H1512V89C1512 108.33 1496.33 124 1477 124H35C15.67 124 0 108.33 0 89V0Z" fill="#F0F0F0"/>
    <path d="M0 0H1512H0ZM1513 89C1513 108.882 1496.88 125 1477 125H35C15.1177 125 -1 108.882 -1 89H1C1 107.778 16.2223 123 35 123H1477C1495.78 123 1511 107.778 1511 89H1513ZM35 125C15.1177 125 -1 108.882 -1 89V0H1V89C1 107.778 16.2223 123 35 123V125ZM1513 0V89C1513 108.882 1496.88 125 1477 125V123C1495.78 123 1511 107.778 1511 89V0H1513Z" fill="#888888" mask="url(#path-5-inside-2_302_22)"/>
    <path d="M734.768 63.336C735.712 63.512 736.512 63.992 737.168 64.776C737.824 65.56 738.152 66.472 738.152 67.512C738.152 68.36 737.936 69.128 737.504 69.816C737.088 70.488 736.472 71.024 735.656 71.424C734.84 71.808 733.864 72 732.728 72H726.92V55.224H732.56C734.256 55.224 735.544 55.616 736.424 56.4C737.32 57.184 737.768 58.2 737.768 59.448C737.768 60.488 737.488 61.336 736.928 61.992C736.368 62.632 735.648 63.08 734.768 63.336ZM728.6 62.64H732.512C733.648 62.64 734.52 62.376 735.128 61.848C735.752 61.304 736.064 60.56 736.064 59.616C736.064 58.688 735.752 57.96 735.128 57.432C734.52 56.904 733.624 56.64 732.44 56.64H728.6V62.64ZM732.608 70.584C733.824 70.584 734.768 70.296 735.44 69.72C736.128 69.144 736.472 68.352 736.472 67.344C736.472 66.336 736.112 65.536 735.392 64.944C734.688 64.336 733.736 64.032 732.536 64.032H728.6V70.584H732.608ZM746.976 72.192C745.744 72.192 744.632 71.92 743.64 71.376C742.664 70.816 741.888 70.032 741.312 69.024C740.752 68 740.472 66.808 740.472 65.448C740.472 64.088 740.76 62.904 741.336 61.896C741.912 60.872 742.696 60.088 743.688 59.544C744.68 58.984 745.792 58.704 747.024 58.704C748.256 58.704 749.368 58.984 750.36 59.544C751.368 60.088 752.152 60.872 752.712 61.896C753.288 62.904 753.576 64.088 753.576 65.448C753.576 66.792 753.288 67.976 752.712 69C752.136 70.024 751.344 70.816 750.336 71.376C749.328 71.92 748.208 72.192 746.976 72.192ZM746.976 70.728C747.84 70.728 748.64 70.536 749.376 70.152C750.112 69.752 750.704 69.16 751.152 68.376C751.616 67.576 751.848 66.6 751.848 65.448C751.848 64.296 751.624 63.328 751.176 62.544C750.728 61.744 750.136 61.152 749.4 60.768C748.664 60.368 747.864 60.168 747 60.168C746.136 60.168 745.336 60.368 744.6 60.768C743.864 61.152 743.272 61.744 742.824 62.544C742.392 63.328 742.176 64.296 742.176 65.448C742.176 66.6 742.392 67.576 742.824 68.376C743.272 69.16 743.856 69.752 744.576 70.152C745.312 70.536 746.112 70.728 746.976 70.728ZM755.871 65.424C755.871 64.08 756.143 62.904 756.687 61.896C757.231 60.872 757.975 60.088 758.919 59.544C759.879 58.984 760.959 58.704 762.159 58.704C763.311 58.704 764.351 58.984 765.279 59.544C766.207 60.104 766.887 60.832 767.319 61.728V54.24H768.999V72H767.319V69.072C766.919 69.984 766.263 70.736 765.351 71.328C764.439 71.904 763.367 72.192 762.135 72.192C760.935 72.192 759.855 71.912 758.895 71.352C757.951 70.792 757.207 70 756.663 68.976C756.135 67.952 755.871 66.768 755.871 65.424ZM767.319 65.448C767.319 64.392 767.103 63.464 766.671 62.664C766.239 61.864 765.647 61.248 764.895 60.816C764.159 60.384 763.343 60.168 762.447 60.168C761.519 60.168 760.687 60.376 759.951 60.792C759.215 61.208 758.631 61.816 758.199 62.616C757.783 63.4 757.575 64.336 757.575 65.424C757.575 66.496 757.783 67.44 758.199 68.256C758.631 69.056 759.215 69.672 759.951 70.104C760.687 70.52 761.519 70.728 762.447 70.728C763.343 70.728 764.159 70.512 764.895 70.08C765.647 69.648 766.239 69.032 766.671 68.232C767.103 67.432 767.319 66.504 767.319 65.448ZM783.634 58.896L775.858 78.168H774.106L776.65 71.928L771.274 58.896H773.122L777.586 70.08L781.906 58.896H783.634Z" fill="#888888"/>
    </g>
    <defs>
    <linearGradient id="paint0_linear_302_22" x1="705.898" y1="155" x2="705.898" y2="467" gradientUnits="userSpaceOnUse">
    <stop stop-color="#888888" stop-opacity="0.8"/>
    <stop offset="1" stop-color="#888888" stop-opacity="0.2"/>
    </linearGradient>
    <clipPath id="clip0_302_22">
    <rect width="1512" height="341" fill="white"/>
    </clipPath>
    </defs>
    </svg>
    