<svg width="1512" height="156" viewBox="0 0 1512 156" fill="none" xmlns="http://www.w3.org/2000/svg">
    <path d="M0 0H1512V156H0V0Z" fill="white" />
    <mask id="path-2-inside-1_302_3" fill="white">
        <path d="M1206 0H1512V156H1206V0Z" />
    </mask>
    <path d="M1207 156V0H1205V156H1207Z" fill="#E1E1E1" mask="url(#path-2-inside-1_302_3)" />
    <rect x="1287.5" y="53.5" width="49" height="49" stroke="#888888" stroke-dasharray="10 10" />
    <line x1="1292" y1="69.5" x2="1332" y2="69.5" stroke="#888888" stroke-width="3" />
    <line x1="1292" y1="85.5" x2="1332" y2="85.5" stroke="#888888" stroke-width="3" />
    <path
        d="M1370.84 69.06V87H1369.02V72.674L1362.62 87H1361.3L1354.9 72.726V87H1353.08V69.06H1355L1361.95 84.608L1368.89 69.06H1370.84ZM1387.81 79.174C1387.81 79.798 1387.79 80.2747 1387.76 80.604H1375.98C1376.03 81.6787 1376.29 82.5973 1376.76 83.36C1377.23 84.1227 1377.84 84.7033 1378.61 85.102C1379.37 85.4833 1380.2 85.674 1381.1 85.674C1382.28 85.674 1383.27 85.388 1384.07 84.816C1384.88 84.244 1385.42 83.4727 1385.68 82.502H1387.6C1387.26 83.8887 1386.51 85.024 1385.37 85.908C1384.24 86.7747 1382.82 87.208 1381.1 87.208C1379.77 87.208 1378.57 86.9133 1377.51 86.324C1376.46 85.7173 1375.63 84.868 1375.02 83.776C1374.43 82.6667 1374.13 81.3753 1374.13 79.902C1374.13 78.4287 1374.43 77.1373 1375.02 76.028C1375.61 74.9187 1376.43 74.0693 1377.49 73.48C1378.55 72.8907 1379.75 72.596 1381.1 72.596C1382.45 72.596 1383.63 72.8907 1384.64 73.48C1385.66 74.0693 1386.44 74.8667 1386.98 75.872C1387.53 76.86 1387.81 77.9607 1387.81 79.174ZM1385.96 79.122C1385.98 78.0647 1385.77 77.1633 1385.31 76.418C1384.88 75.6727 1384.28 75.1093 1383.52 74.728C1382.76 74.3467 1381.93 74.156 1381.02 74.156C1379.67 74.156 1378.52 74.5893 1377.57 75.456C1376.61 76.3227 1376.08 77.5447 1375.98 79.122H1385.96ZM1397.8 72.544C1399.5 72.544 1400.88 73.0727 1401.96 74.13C1403.03 75.17 1403.57 76.6867 1403.57 78.68V87H1401.77V78.888C1401.77 77.3453 1401.38 76.1667 1400.6 75.352C1399.84 74.5373 1398.79 74.13 1397.46 74.13C1396.09 74.13 1395 74.5633 1394.18 75.43C1393.37 76.2967 1392.96 77.5707 1392.96 79.252V87H1391.14V72.804H1392.96V75.222C1393.41 74.3553 1394.06 73.6967 1394.91 73.246C1395.76 72.778 1396.72 72.544 1397.8 72.544ZM1419.89 72.804V87H1418.07V84.504C1417.66 85.388 1417.01 86.064 1416.15 86.532C1415.28 87 1414.31 87.234 1413.24 87.234C1411.54 87.234 1410.15 86.714 1409.08 85.674C1408 84.6167 1407.46 83.0913 1407.46 81.098V72.804H1409.26V80.89C1409.26 82.4327 1409.64 83.6113 1410.4 84.426C1411.18 85.2407 1412.24 85.648 1413.57 85.648C1414.94 85.648 1416.04 85.2147 1416.85 84.348C1417.66 83.4813 1418.07 82.2073 1418.07 80.526V72.804H1419.89Z"
        fill="#888888" />
    <mask id="path-8-inside-2_302_3" fill="white">
        <path d="M900 0H1206V156H900V0Z" />
    </mask>
    <path
        d="M900 0V-1H899V0H900ZM1206 0H1207V-1H1206V0ZM1206 156V157H1207V156H1206ZM900 156H899V157H900V156ZM900 1H1206V-1H900V1ZM1205 0V156H1207V0H1205ZM1206 155H900V157H1206V155ZM901 156V0H899V156H901Z"
        fill="#B924FF" mask="url(#path-8-inside-2_302_3)" />
    <path
        d="M1024.25 78.9C1024.25 77.1147 1024.64 75.52 1025.42 74.116C1026.2 72.6947 1027.26 71.594 1028.62 70.814C1029.97 70.0167 1031.48 69.618 1033.14 69.618C1035.17 69.618 1036.9 70.1033 1038.34 71.074C1039.8 72.0273 1040.85 73.3793 1041.51 75.13H1039.38C1038.86 73.8993 1038.06 72.9373 1036.99 72.244C1035.93 71.5507 1034.65 71.204 1033.14 71.204C1031.81 71.204 1030.6 71.516 1029.53 72.14C1028.47 72.764 1027.64 73.6653 1027.03 74.844C1026.42 76.0053 1026.12 77.3573 1026.12 78.9C1026.12 80.4427 1026.42 81.7947 1027.03 82.956C1027.64 84.1173 1028.47 85.01 1029.53 85.634C1030.6 86.258 1031.81 86.57 1033.14 86.57C1034.65 86.57 1035.93 86.232 1036.99 85.556C1038.06 84.8627 1038.86 83.9093 1039.38 82.696H1041.51C1040.85 84.4293 1039.8 85.7727 1038.34 86.726C1036.88 87.6793 1035.15 88.156 1033.14 88.156C1031.48 88.156 1029.97 87.766 1028.62 86.986C1027.26 86.1887 1026.2 85.088 1025.42 83.684C1024.64 82.28 1024.25 80.6853 1024.25 78.9ZM1046.05 71.126C1045.68 71.126 1045.37 70.996 1045.11 70.736C1044.85 70.476 1044.72 70.1553 1044.72 69.774C1044.72 69.3927 1044.85 69.0807 1045.11 68.838C1045.37 68.578 1045.68 68.448 1046.05 68.448C1046.41 68.448 1046.72 68.578 1046.98 68.838C1047.24 69.0807 1047.37 69.3927 1047.37 69.774C1047.37 70.1553 1047.24 70.476 1046.98 70.736C1046.72 70.996 1046.41 71.126 1046.05 71.126ZM1046.96 73.804V88H1045.14V73.804H1046.96ZM1053.45 75.338V84.152C1053.45 85.0187 1053.61 85.6167 1053.94 85.946C1054.27 86.2753 1054.85 86.44 1055.68 86.44H1057.35V88H1055.4C1054.11 88 1053.16 87.7053 1052.54 87.116C1051.91 86.5093 1051.6 85.5213 1051.6 84.152V75.338H1049.62V73.804H1051.6V70.242H1053.45V73.804H1057.35V75.338H1053.45ZM1072.05 73.804L1063.62 94.682H1061.73L1064.48 87.922L1058.66 73.804H1060.66L1065.5 85.92L1070.18 73.804H1072.05Z"
        fill="#888888" />
    <path d="M71 46H103C120.673 46 135 60.3269 135 78C135 95.6731 120.673 110 103 110H71V46Z"
        fill="#888888" />
    <rect x="65.5" y="40.5" width="75" height="75" stroke="#888888" stroke-dasharray="10 10" />
    <rect x="171.5" y="53.5" width="125" height="49" rx="24.5" stroke="#B924FF" />
    <path
        d="M222.82 66.2L217.3 88.32H215.92L221.4 66.2H222.82ZM231.156 85.1C230.863 85.1 230.616 85 230.416 84.8C230.23 84.6 230.136 84.3533 230.136 84.06C230.136 83.7667 230.23 83.5267 230.416 83.34C230.616 83.14 230.863 83.04 231.156 83.04C231.436 83.04 231.67 83.14 231.856 83.34C232.056 83.5267 232.156 83.7667 232.156 84.06C232.156 84.3533 232.056 84.6 231.856 84.8C231.67 85 231.436 85.1 231.156 85.1ZM240.278 85.1C239.984 85.1 239.738 85 239.538 84.8C239.351 84.6 239.258 84.3533 239.258 84.06C239.258 83.7667 239.351 83.5267 239.538 83.34C239.738 83.14 239.984 83.04 240.278 83.04C240.558 83.04 240.791 83.14 240.978 83.34C241.178 83.5267 241.278 83.7667 241.278 84.06C241.278 84.3533 241.178 84.6 240.978 84.8C240.791 85 240.558 85.1 240.278 85.1ZM249.399 85.1C249.105 85.1 248.859 85 248.659 84.8C248.472 84.6 248.379 84.3533 248.379 84.06C248.379 83.7667 248.472 83.5267 248.659 83.34C248.859 83.14 249.105 83.04 249.399 83.04C249.679 83.04 249.912 83.14 250.099 83.34C250.299 83.5267 250.399 83.7667 250.399 84.06C250.399 84.3533 250.299 84.6 250.099 84.8C249.912 85 249.679 85.1 249.399 85.1Z"
        fill="#888888" />
</svg>
    