<svg width="795" height="314" viewBox="0 0 795 314" fill="none" xmlns="http://www.w3.org/2000/svg">
    <g opacity="0.7">
        <g opacity="0.5">
            <path
                d="M96.296 210V100.8H141.224C148.088 100.8 154.12 102.204 159.32 105.012C164.624 107.716 168.732 111.564 171.644 116.556C174.66 121.548 176.168 127.476 176.168 134.34V136.524C176.168 143.284 174.608 149.212 171.488 154.308C168.472 159.3 164.312 163.2 159.008 166.008C153.808 168.712 147.88 170.064 141.224 170.064H116.888V210H96.296ZM116.888 151.344H139.196C144.084 151.344 148.036 149.992 151.052 147.288C154.068 144.584 155.576 140.892 155.576 136.212V134.652C155.576 129.972 154.068 126.28 151.052 123.576C148.036 120.872 144.084 119.52 139.196 119.52H116.888V151.344Z"
                fill="url(#paint0_linear_315_3)" />
            <path
                d="M191.068 210V132.624H210.412V141.36H213.22C214.364 138.24 216.236 135.952 218.836 134.496C221.54 133.04 224.66 132.312 228.196 132.312H237.556V149.784H227.884C222.892 149.784 218.784 151.136 215.56 153.84C212.336 156.44 210.724 160.496 210.724 166.008V210H191.068Z"
                fill="url(#paint1_linear_315_3)" />
            <path
                d="M286.994 212.184C279.298 212.184 272.382 210.624 266.246 207.504C260.11 204.384 255.274 199.86 251.738 193.932C248.202 188.004 246.434 180.88 246.434 172.56V170.064C246.434 161.744 248.202 154.62 251.738 148.692C255.274 142.764 260.11 138.24 266.246 135.12C272.382 132 279.298 130.44 286.994 130.44C294.69 130.44 301.606 132 307.742 135.12C313.878 138.24 318.714 142.764 322.25 148.692C325.786 154.62 327.554 161.744 327.554 170.064V172.56C327.554 180.88 325.786 188.004 322.25 193.932C318.714 199.86 313.878 204.384 307.742 207.504C301.606 210.624 294.69 212.184 286.994 212.184ZM286.994 194.712C293.026 194.712 298.018 192.788 301.97 188.94C305.922 184.988 307.898 179.372 307.898 172.092V170.532C307.898 163.252 305.922 157.688 301.97 153.84C298.122 149.888 293.13 147.912 286.994 147.912C280.962 147.912 275.97 149.888 272.018 153.84C268.066 157.688 266.09 163.252 266.09 170.532V172.092C266.09 179.372 268.066 184.988 272.018 188.94C275.97 192.788 280.962 194.712 286.994 194.712Z"
                fill="url(#paint2_linear_315_3)" />
            <path
                d="M331.345 241.2V224.352H341.641C344.553 224.352 346.009 222.792 346.009 219.672V132.624H365.665V223.728C365.665 229.032 364.105 233.244 360.985 236.364C357.865 239.588 353.705 241.2 348.505 241.2H331.345ZM355.837 123.576C352.301 123.576 349.285 122.432 346.789 120.144C344.397 117.856 343.201 114.84 343.201 111.096C343.201 107.352 344.397 104.336 346.789 102.048C349.285 99.76 352.301 98.616 355.837 98.616C359.477 98.616 362.493 99.76 364.885 102.048C367.277 104.336 368.473 107.352 368.473 111.096C368.473 114.84 367.277 117.856 364.885 120.144C362.493 122.432 359.477 123.576 355.837 123.576Z"
                fill="url(#paint3_linear_315_3)" />
            <path
                d="M422.696 212.184C415 212.184 408.188 210.572 402.26 207.348C396.436 204.02 391.86 199.392 388.532 193.464C385.308 187.432 383.696 180.36 383.696 172.248V170.376C383.696 162.264 385.308 155.244 388.532 149.316C391.756 143.284 396.28 138.656 402.104 135.432C407.928 132.104 414.688 130.44 422.384 130.44C429.976 130.44 436.58 132.156 442.196 135.588C447.812 138.916 452.18 143.596 455.3 149.628C458.42 155.556 459.98 162.472 459.98 170.376V177.084H403.664C403.872 182.388 405.848 186.704 409.592 190.032C413.336 193.36 417.912 195.024 423.32 195.024C428.832 195.024 432.888 193.828 435.488 191.436C438.088 189.044 440.064 186.392 441.416 183.48L457.484 191.904C456.028 194.608 453.896 197.572 451.088 200.796C448.384 203.916 444.744 206.62 440.168 208.908C435.592 211.092 429.768 212.184 422.696 212.184ZM403.82 162.42H440.012C439.596 157.948 437.776 154.36 434.552 151.656C431.432 148.952 427.324 147.6 422.228 147.6C416.924 147.6 412.712 148.952 409.592 151.656C406.472 154.36 404.548 157.948 403.82 162.42Z"
                fill="url(#paint4_linear_315_3)" />
            <path
                d="M513.823 212.184C506.335 212.184 499.523 210.624 493.387 207.504C487.355 204.384 482.571 199.86 479.035 193.932C475.499 188.004 473.731 180.828 473.731 172.404V170.22C473.731 161.796 475.499 154.62 479.035 148.692C482.571 142.764 487.355 138.24 493.387 135.12C499.523 132 506.335 130.44 513.823 130.44C521.207 130.44 527.551 131.74 532.855 134.34C538.159 136.94 542.423 140.528 545.647 145.104C548.975 149.576 551.159 154.672 552.199 160.392L533.167 164.448C532.751 161.328 531.815 158.52 530.359 156.024C528.903 153.528 526.823 151.552 524.119 150.096C521.519 148.64 518.243 147.912 514.291 147.912C510.339 147.912 506.751 148.796 503.527 150.564C500.407 152.228 497.911 154.776 496.039 158.208C494.271 161.536 493.387 165.644 493.387 170.532V172.092C493.387 176.98 494.271 181.14 496.039 184.572C497.911 187.9 500.407 190.448 503.527 192.216C506.751 193.88 510.339 194.712 514.291 194.712C520.219 194.712 524.691 193.204 527.707 190.188C530.827 187.068 532.803 183.012 533.635 178.02L552.667 182.544C551.315 188.056 548.975 193.1 545.647 197.676C542.423 202.148 538.159 205.684 532.855 208.284C527.551 210.884 521.207 212.184 513.823 212.184Z"
                fill="url(#paint5_linear_315_3)" />
            <path
                d="M595.931 210C590.835 210 586.675 208.44 583.451 205.32C580.331 202.096 578.771 197.832 578.771 192.528V148.848H559.427V132.624H578.771V108.6H598.427V132.624H619.643V148.848H598.427V189.096C598.427 192.216 599.883 193.776 602.795 193.776H617.771V210H595.931Z"
                fill="url(#paint6_linear_315_3)" />
            <path
                d="M669.572 212.184C659.484 212.184 651.216 210 644.768 205.632C638.32 201.264 634.42 195.024 633.068 186.912L651.164 182.232C651.892 185.872 653.088 188.732 654.752 190.812C656.52 192.892 658.652 194.4 661.148 195.336C663.748 196.168 666.556 196.584 669.572 196.584C674.148 196.584 677.528 195.804 679.712 194.244C681.896 192.58 682.988 190.552 682.988 188.16C682.988 185.768 681.948 183.948 679.868 182.7C677.788 181.348 674.46 180.256 669.884 179.424L665.516 178.644C660.108 177.604 655.168 176.2 650.696 174.432C646.224 172.56 642.636 170.012 639.932 166.788C637.228 163.564 635.876 159.404 635.876 154.308C635.876 146.612 638.684 140.736 644.3 136.68C649.916 132.52 657.3 130.44 666.452 130.44C675.084 130.44 682.26 132.364 687.98 136.212C693.7 140.06 697.444 145.104 699.212 151.344L680.96 156.96C680.128 153.008 678.412 150.2 675.812 148.536C673.316 146.872 670.196 146.04 666.452 146.04C662.708 146.04 659.848 146.716 657.872 148.068C655.896 149.316 654.908 151.084 654.908 153.372C654.908 155.868 655.948 157.74 658.028 158.988C660.108 160.132 662.916 161.016 666.452 161.64L670.82 162.42C676.644 163.46 681.896 164.864 686.576 166.632C691.36 168.296 695.104 170.74 697.808 173.964C700.616 177.084 702.02 181.348 702.02 186.756C702.02 194.868 699.056 201.16 693.128 205.632C687.304 210 679.452 212.184 669.572 212.184Z"
                fill="url(#paint7_linear_315_3)" />
        </g>
        <mask id="path-2-outside-1_315_3" maskUnits="userSpaceOnUse" x="95" y="97" width="609"
            height="146" fill="black">
            <rect fill="white" x="95" y="97" width="609" height="146" />
            <path
                d="M96.296 210V100.8H141.224C148.088 100.8 154.12 102.204 159.32 105.012C164.624 107.716 168.732 111.564 171.644 116.556C174.66 121.548 176.168 127.476 176.168 134.34V136.524C176.168 143.284 174.608 149.212 171.488 154.308C168.472 159.3 164.312 163.2 159.008 166.008C153.808 168.712 147.88 170.064 141.224 170.064H116.888V210H96.296ZM116.888 151.344H139.196C144.084 151.344 148.036 149.992 151.052 147.288C154.068 144.584 155.576 140.892 155.576 136.212V134.652C155.576 129.972 154.068 126.28 151.052 123.576C148.036 120.872 144.084 119.52 139.196 119.52H116.888V151.344ZM191.221 210V132.624H210.565V141.36H213.373C214.517 138.24 216.389 135.952 218.989 134.496C221.693 133.04 224.813 132.312 228.349 132.312H237.709V149.784H228.037C223.045 149.784 218.937 151.136 215.713 153.84C212.489 156.44 210.877 160.496 210.877 166.008V210H191.221ZM287.146 212.184C279.45 212.184 272.534 210.624 266.398 207.504C260.262 204.384 255.426 199.86 251.89 193.932C248.354 188.004 246.586 180.88 246.586 172.56V170.064C246.586 161.744 248.354 154.62 251.89 148.692C255.426 142.764 260.262 138.24 266.398 135.12C272.534 132 279.45 130.44 287.146 130.44C294.842 130.44 301.758 132 307.894 135.12C314.03 138.24 318.866 142.764 322.402 148.692C325.938 154.62 327.706 161.744 327.706 170.064V172.56C327.706 180.88 325.938 188.004 322.402 193.932C318.866 199.86 314.03 204.384 307.894 207.504C301.758 210.624 294.842 212.184 287.146 212.184ZM287.146 194.712C293.178 194.712 298.17 192.788 302.122 188.94C306.074 184.988 308.05 179.372 308.05 172.092V170.532C308.05 163.252 306.074 157.688 302.122 153.84C298.274 149.888 293.282 147.912 287.146 147.912C281.114 147.912 276.122 149.888 272.17 153.84C268.218 157.688 266.242 163.252 266.242 170.532V172.092C266.242 179.372 268.218 184.988 272.17 188.94C276.122 192.788 281.114 194.712 287.146 194.712ZM331.498 241.2V224.352H341.794C344.706 224.352 346.162 222.792 346.162 219.672V132.624H365.818V223.728C365.818 229.032 364.258 233.244 361.138 236.364C358.018 239.588 353.858 241.2 348.658 241.2H331.498ZM355.99 123.576C352.454 123.576 349.438 122.432 346.942 120.144C344.55 117.856 343.354 114.84 343.354 111.096C343.354 107.352 344.55 104.336 346.942 102.048C349.438 99.76 352.454 98.616 355.99 98.616C359.63 98.616 362.646 99.76 365.038 102.048C367.43 104.336 368.626 107.352 368.626 111.096C368.626 114.84 367.43 117.856 365.038 120.144C362.646 122.432 359.63 123.576 355.99 123.576ZM422.848 212.184C415.152 212.184 408.34 210.572 402.412 207.348C396.588 204.02 392.012 199.392 388.684 193.464C385.46 187.432 383.848 180.36 383.848 172.248V170.376C383.848 162.264 385.46 155.244 388.684 149.316C391.908 143.284 396.432 138.656 402.256 135.432C408.08 132.104 414.84 130.44 422.536 130.44C430.128 130.44 436.732 132.156 442.348 135.588C447.964 138.916 452.332 143.596 455.452 149.628C458.572 155.556 460.132 162.472 460.132 170.376V177.084H403.816C404.024 182.388 406 186.704 409.744 190.032C413.488 193.36 418.064 195.024 423.472 195.024C428.984 195.024 433.04 193.828 435.64 191.436C438.24 189.044 440.216 186.392 441.568 183.48L457.636 191.904C456.18 194.608 454.048 197.572 451.24 200.796C448.536 203.916 444.896 206.62 440.32 208.908C435.744 211.092 429.92 212.184 422.848 212.184ZM403.972 162.42H440.164C439.748 157.948 437.928 154.36 434.704 151.656C431.584 148.952 427.476 147.6 422.38 147.6C417.076 147.6 412.864 148.952 409.744 151.656C406.624 154.36 404.7 157.948 403.972 162.42ZM513.975 212.184C506.487 212.184 499.675 210.624 493.539 207.504C487.507 204.384 482.723 199.86 479.187 193.932C475.651 188.004 473.883 180.828 473.883 172.404V170.22C473.883 161.796 475.651 154.62 479.187 148.692C482.723 142.764 487.507 138.24 493.539 135.12C499.675 132 506.487 130.44 513.975 130.44C521.359 130.44 527.703 131.74 533.007 134.34C538.311 136.94 542.575 140.528 545.799 145.104C549.127 149.576 551.311 154.672 552.351 160.392L533.319 164.448C532.903 161.328 531.967 158.52 530.511 156.024C529.055 153.528 526.975 151.552 524.271 150.096C521.671 148.64 518.395 147.912 514.443 147.912C510.491 147.912 506.903 148.796 503.679 150.564C500.559 152.228 498.063 154.776 496.191 158.208C494.423 161.536 493.539 165.644 493.539 170.532V172.092C493.539 176.98 494.423 181.14 496.191 184.572C498.063 187.9 500.559 190.448 503.679 192.216C506.903 193.88 510.491 194.712 514.443 194.712C520.371 194.712 524.843 193.204 527.859 190.188C530.979 187.068 532.955 183.012 533.787 178.02L552.819 182.544C551.467 188.056 549.127 193.1 545.799 197.676C542.575 202.148 538.311 205.684 533.007 208.284C527.703 210.884 521.359 212.184 513.975 212.184ZM596.083 210C590.987 210 586.827 208.44 583.603 205.32C580.483 202.096 578.923 197.832 578.923 192.528V148.848H559.579V132.624H578.923V108.6H598.579V132.624H619.795V148.848H598.579V189.096C598.579 192.216 600.035 193.776 602.947 193.776H617.923V210H596.083ZM669.724 212.184C659.636 212.184 651.368 210 644.92 205.632C638.472 201.264 634.572 195.024 633.22 186.912L651.316 182.232C652.044 185.872 653.24 188.732 654.904 190.812C656.672 192.892 658.804 194.4 661.3 195.336C663.9 196.168 666.708 196.584 669.724 196.584C674.3 196.584 677.68 195.804 679.864 194.244C682.048 192.58 683.14 190.552 683.14 188.16C683.14 185.768 682.1 183.948 680.02 182.7C677.94 181.348 674.612 180.256 670.036 179.424L665.668 178.644C660.26 177.604 655.32 176.2 650.848 174.432C646.376 172.56 642.788 170.012 640.084 166.788C637.38 163.564 636.028 159.404 636.028 154.308C636.028 146.612 638.836 140.736 644.452 136.68C650.068 132.52 657.452 130.44 666.604 130.44C675.236 130.44 682.412 132.364 688.132 136.212C693.852 140.06 697.596 145.104 699.364 151.344L681.112 156.96C680.28 153.008 678.564 150.2 675.964 148.536C673.468 146.872 670.348 146.04 666.604 146.04C662.86 146.04 660 146.716 658.024 148.068C656.048 149.316 655.06 151.084 655.06 153.372C655.06 155.868 656.1 157.74 658.18 158.988C660.26 160.132 663.068 161.016 666.604 161.64L670.972 162.42C676.796 163.46 682.048 164.864 686.728 166.632C691.512 168.296 695.256 170.74 697.96 173.964C700.768 177.084 702.172 181.348 702.172 186.756C702.172 194.868 699.208 201.16 693.28 205.632C687.456 210 679.604 212.184 669.724 212.184Z" />
        </mask>
        <path
            d="M96.296 210V100.8H141.224C148.088 100.8 154.12 102.204 159.32 105.012C164.624 107.716 168.732 111.564 171.644 116.556C174.66 121.548 176.168 127.476 176.168 134.34V136.524C176.168 143.284 174.608 149.212 171.488 154.308C168.472 159.3 164.312 163.2 159.008 166.008C153.808 168.712 147.88 170.064 141.224 170.064H116.888V210H96.296ZM116.888 151.344H139.196C144.084 151.344 148.036 149.992 151.052 147.288C154.068 144.584 155.576 140.892 155.576 136.212V134.652C155.576 129.972 154.068 126.28 151.052 123.576C148.036 120.872 144.084 119.52 139.196 119.52H116.888V151.344ZM191.221 210V132.624H210.565V141.36H213.373C214.517 138.24 216.389 135.952 218.989 134.496C221.693 133.04 224.813 132.312 228.349 132.312H237.709V149.784H228.037C223.045 149.784 218.937 151.136 215.713 153.84C212.489 156.44 210.877 160.496 210.877 166.008V210H191.221ZM287.146 212.184C279.45 212.184 272.534 210.624 266.398 207.504C260.262 204.384 255.426 199.86 251.89 193.932C248.354 188.004 246.586 180.88 246.586 172.56V170.064C246.586 161.744 248.354 154.62 251.89 148.692C255.426 142.764 260.262 138.24 266.398 135.12C272.534 132 279.45 130.44 287.146 130.44C294.842 130.44 301.758 132 307.894 135.12C314.03 138.24 318.866 142.764 322.402 148.692C325.938 154.62 327.706 161.744 327.706 170.064V172.56C327.706 180.88 325.938 188.004 322.402 193.932C318.866 199.86 314.03 204.384 307.894 207.504C301.758 210.624 294.842 212.184 287.146 212.184ZM287.146 194.712C293.178 194.712 298.17 192.788 302.122 188.94C306.074 184.988 308.05 179.372 308.05 172.092V170.532C308.05 163.252 306.074 157.688 302.122 153.84C298.274 149.888 293.282 147.912 287.146 147.912C281.114 147.912 276.122 149.888 272.17 153.84C268.218 157.688 266.242 163.252 266.242 170.532V172.092C266.242 179.372 268.218 184.988 272.17 188.94C276.122 192.788 281.114 194.712 287.146 194.712ZM331.498 241.2V224.352H341.794C344.706 224.352 346.162 222.792 346.162 219.672V132.624H365.818V223.728C365.818 229.032 364.258 233.244 361.138 236.364C358.018 239.588 353.858 241.2 348.658 241.2H331.498ZM355.99 123.576C352.454 123.576 349.438 122.432 346.942 120.144C344.55 117.856 343.354 114.84 343.354 111.096C343.354 107.352 344.55 104.336 346.942 102.048C349.438 99.76 352.454 98.616 355.99 98.616C359.63 98.616 362.646 99.76 365.038 102.048C367.43 104.336 368.626 107.352 368.626 111.096C368.626 114.84 367.43 117.856 365.038 120.144C362.646 122.432 359.63 123.576 355.99 123.576ZM422.848 212.184C415.152 212.184 408.34 210.572 402.412 207.348C396.588 204.02 392.012 199.392 388.684 193.464C385.46 187.432 383.848 180.36 383.848 172.248V170.376C383.848 162.264 385.46 155.244 388.684 149.316C391.908 143.284 396.432 138.656 402.256 135.432C408.08 132.104 414.84 130.44 422.536 130.44C430.128 130.44 436.732 132.156 442.348 135.588C447.964 138.916 452.332 143.596 455.452 149.628C458.572 155.556 460.132 162.472 460.132 170.376V177.084H403.816C404.024 182.388 406 186.704 409.744 190.032C413.488 193.36 418.064 195.024 423.472 195.024C428.984 195.024 433.04 193.828 435.64 191.436C438.24 189.044 440.216 186.392 441.568 183.48L457.636 191.904C456.18 194.608 454.048 197.572 451.24 200.796C448.536 203.916 444.896 206.62 440.32 208.908C435.744 211.092 429.92 212.184 422.848 212.184ZM403.972 162.42H440.164C439.748 157.948 437.928 154.36 434.704 151.656C431.584 148.952 427.476 147.6 422.38 147.6C417.076 147.6 412.864 148.952 409.744 151.656C406.624 154.36 404.7 157.948 403.972 162.42ZM513.975 212.184C506.487 212.184 499.675 210.624 493.539 207.504C487.507 204.384 482.723 199.86 479.187 193.932C475.651 188.004 473.883 180.828 473.883 172.404V170.22C473.883 161.796 475.651 154.62 479.187 148.692C482.723 142.764 487.507 138.24 493.539 135.12C499.675 132 506.487 130.44 513.975 130.44C521.359 130.44 527.703 131.74 533.007 134.34C538.311 136.94 542.575 140.528 545.799 145.104C549.127 149.576 551.311 154.672 552.351 160.392L533.319 164.448C532.903 161.328 531.967 158.52 530.511 156.024C529.055 153.528 526.975 151.552 524.271 150.096C521.671 148.64 518.395 147.912 514.443 147.912C510.491 147.912 506.903 148.796 503.679 150.564C500.559 152.228 498.063 154.776 496.191 158.208C494.423 161.536 493.539 165.644 493.539 170.532V172.092C493.539 176.98 494.423 181.14 496.191 184.572C498.063 187.9 500.559 190.448 503.679 192.216C506.903 193.88 510.491 194.712 514.443 194.712C520.371 194.712 524.843 193.204 527.859 190.188C530.979 187.068 532.955 183.012 533.787 178.02L552.819 182.544C551.467 188.056 549.127 193.1 545.799 197.676C542.575 202.148 538.311 205.684 533.007 208.284C527.703 210.884 521.359 212.184 513.975 212.184ZM596.083 210C590.987 210 586.827 208.44 583.603 205.32C580.483 202.096 578.923 197.832 578.923 192.528V148.848H559.579V132.624H578.923V108.6H598.579V132.624H619.795V148.848H598.579V189.096C598.579 192.216 600.035 193.776 602.947 193.776H617.923V210H596.083ZM669.724 212.184C659.636 212.184 651.368 210 644.92 205.632C638.472 201.264 634.572 195.024 633.22 186.912L651.316 182.232C652.044 185.872 653.24 188.732 654.904 190.812C656.672 192.892 658.804 194.4 661.3 195.336C663.9 196.168 666.708 196.584 669.724 196.584C674.3 196.584 677.68 195.804 679.864 194.244C682.048 192.58 683.14 190.552 683.14 188.16C683.14 185.768 682.1 183.948 680.02 182.7C677.94 181.348 674.612 180.256 670.036 179.424L665.668 178.644C660.26 177.604 655.32 176.2 650.848 174.432C646.376 172.56 642.788 170.012 640.084 166.788C637.38 163.564 636.028 159.404 636.028 154.308C636.028 146.612 638.836 140.736 644.452 136.68C650.068 132.52 657.452 130.44 666.604 130.44C675.236 130.44 682.412 132.364 688.132 136.212C693.852 140.06 697.596 145.104 699.364 151.344L681.112 156.96C680.28 153.008 678.564 150.2 675.964 148.536C673.468 146.872 670.348 146.04 666.604 146.04C662.86 146.04 660 146.716 658.024 148.068C656.048 149.316 655.06 151.084 655.06 153.372C655.06 155.868 656.1 157.74 658.18 158.988C660.26 160.132 663.068 161.016 666.604 161.64L670.972 162.42C676.796 163.46 682.048 164.864 686.728 166.632C691.512 168.296 695.256 170.74 697.96 173.964C700.768 177.084 702.172 181.348 702.172 186.756C702.172 194.868 699.208 201.16 693.28 205.632C687.456 210 679.604 212.184 669.724 212.184Z"
            fill="url(#paint8_linear_315_3)" fill-opacity="0.2" />
        <path
            d="M96.296 210H95.296V211H96.296V210ZM96.296 100.8V99.8H95.296V100.8H96.296ZM159.32 105.012L158.845 105.892L158.855 105.898L158.866 105.903L159.32 105.012ZM171.644 116.556L170.78 117.06L170.784 117.067L170.788 117.073L171.644 116.556ZM171.488 154.308L170.635 153.786L170.632 153.791L171.488 154.308ZM159.008 166.008L159.469 166.895L159.476 166.892L159.008 166.008ZM116.888 170.064V169.064H115.888V170.064H116.888ZM116.888 210V211H117.888V210H116.888ZM116.888 151.344H115.888V152.344H116.888V151.344ZM151.052 147.288L151.72 148.033L151.052 147.288ZM151.052 123.576L151.72 122.831L151.052 123.576ZM116.888 119.52V118.52H115.888V119.52H116.888ZM97.296 210V100.8H95.296V210H97.296ZM96.296 101.8H141.224V99.8H96.296V101.8ZM141.224 101.8C147.949 101.8 153.813 103.175 158.845 105.892L159.795 104.132C154.427 101.233 148.227 99.8 141.224 99.8V101.8ZM158.866 105.903C164.004 108.523 167.968 112.239 170.78 117.06L172.508 116.052C169.496 110.889 165.244 106.909 159.774 104.121L158.866 105.903ZM170.788 117.073C173.694 121.883 175.168 127.626 175.168 134.34H177.168C177.168 127.326 175.626 121.213 172.5 116.039L170.788 117.073ZM175.168 134.34V136.524H177.168V134.34H175.168ZM175.168 136.524C175.168 143.125 173.647 148.867 170.635 153.786L172.341 154.83C175.569 149.557 177.168 143.443 177.168 136.524H175.168ZM170.632 153.791C167.713 158.623 163.689 162.398 158.54 165.124L159.476 166.892C164.935 164.002 169.231 159.977 172.344 154.825L170.632 153.791ZM158.547 165.121C153.507 167.741 147.741 169.064 141.224 169.064V171.064C148.019 171.064 154.109 169.683 159.469 166.895L158.547 165.121ZM141.224 169.064H116.888V171.064H141.224V169.064ZM115.888 170.064V210H117.888V170.064H115.888ZM116.888 209H96.296V211H116.888V209ZM116.888 152.344H139.196V150.344H116.888V152.344ZM139.196 152.344C144.277 152.344 148.484 150.934 151.72 148.033L150.384 146.543C147.588 149.05 143.891 150.344 139.196 150.344V152.344ZM151.72 148.033C154.981 145.109 156.576 141.127 156.576 136.212H154.576C154.576 140.657 153.155 144.059 150.384 146.543L151.72 148.033ZM156.576 136.212V134.652H154.576V136.212H156.576ZM156.576 134.652C156.576 129.737 154.981 125.755 151.72 122.831L150.384 124.321C153.155 126.805 154.576 130.207 154.576 134.652H156.576ZM151.72 122.831C148.484 119.93 144.277 118.52 139.196 118.52V120.52C143.891 120.52 147.588 121.814 150.384 124.321L151.72 122.831ZM139.196 118.52H116.888V120.52H139.196V118.52ZM115.888 119.52V151.344H117.888V119.52H115.888ZM191.068 210H190.068V211H191.068V210ZM191.068 132.624V131.624H190.068V132.624H191.068ZM210.412 132.624H211.412V131.624H210.412V132.624ZM210.412 141.36H209.412V142.36H210.412V141.36ZM213.22 141.36V142.36H213.919L214.159 141.704L213.22 141.36ZM218.836 134.496L218.362 133.616L218.355 133.619L218.348 133.623L218.836 134.496ZM237.556 132.312H238.556V131.312H237.556V132.312ZM237.556 149.784V150.784H238.556V149.784H237.556ZM215.56 153.84L216.188 154.618L216.196 154.612L216.203 154.606L215.56 153.84ZM210.724 210V211H211.724V210H210.724ZM192.068 210V132.624H190.068V210H192.068ZM191.068 133.624H210.412V131.624H191.068V133.624ZM209.412 132.624V141.36H211.412V132.624H209.412ZM210.412 142.36H213.22V140.36H210.412V142.36ZM214.159 141.704C215.231 138.781 216.958 136.694 219.325 135.368L218.348 133.623C215.515 135.21 213.498 137.699 212.282 141.016L214.159 141.704ZM219.311 135.376C221.848 134.01 224.801 133.312 228.196 133.312V131.312C224.52 131.312 221.233 132.07 218.362 133.616L219.311 135.376ZM228.196 133.312H237.556V131.312H228.196V133.312ZM236.556 132.312V149.784H238.556V132.312H236.556ZM237.556 148.784H227.884V150.784H237.556V148.784ZM227.884 148.784C222.703 148.784 218.354 150.192 214.918 153.074L216.203 154.606C219.215 152.08 223.082 150.784 227.884 150.784V148.784ZM214.933 153.062C211.401 155.91 209.724 160.301 209.724 166.008H211.724C211.724 160.691 213.272 156.97 216.188 154.618L214.933 153.062ZM209.724 166.008V210H211.724V166.008H209.724ZM210.724 209H191.068V211H210.724V209ZM266.246 207.504L265.793 208.395L266.246 207.504ZM251.738 148.692L252.597 149.204L251.738 148.692ZM266.246 135.12L266.699 136.011L266.246 135.12ZM307.742 135.12L307.289 136.011L307.742 135.12ZM322.25 148.692L321.391 149.204L322.25 148.692ZM322.25 193.932L321.391 193.42L322.25 193.932ZM307.742 207.504L307.289 206.613L307.742 207.504ZM301.97 188.94L302.667 189.657L302.677 189.647L301.97 188.94ZM301.97 153.84L301.253 154.538L301.263 154.547L301.272 154.556L301.97 153.84ZM272.018 153.84L272.715 154.557L272.725 154.547L272.018 153.84ZM272.018 188.94L271.311 189.647L271.32 189.656L272.018 188.94ZM286.994 211.184C279.437 211.184 272.679 209.653 266.699 206.613L265.793 208.395C272.085 211.595 279.159 213.184 286.994 213.184V211.184ZM266.699 206.613C260.732 203.578 256.036 199.186 252.597 193.42L250.879 194.444C254.511 200.534 259.488 205.19 265.793 208.395L266.699 206.613ZM252.597 193.42C249.17 187.676 247.434 180.737 247.434 172.56H245.434C245.434 181.023 247.233 188.332 250.879 194.444L252.597 193.42ZM247.434 172.56V170.064H245.434V172.56H247.434ZM247.434 170.064C247.434 161.887 249.17 154.948 252.597 149.204L250.879 148.18C247.233 154.292 245.434 161.601 245.434 170.064H247.434ZM252.597 149.204C256.036 143.438 260.732 139.046 266.699 136.011L265.793 134.229C259.488 137.434 254.511 142.09 250.879 148.18L252.597 149.204ZM266.699 136.011C272.679 132.971 279.437 131.44 286.994 131.44V129.44C279.159 129.44 272.085 131.029 265.793 134.229L266.699 136.011ZM286.994 131.44C294.551 131.44 301.309 132.971 307.289 136.011L308.195 134.229C301.903 131.029 294.829 129.44 286.994 129.44V131.44ZM307.289 136.011C313.256 139.046 317.951 143.438 321.391 149.204L323.109 148.18C319.476 142.09 314.5 137.434 308.195 134.229L307.289 136.011ZM321.391 149.204C324.817 154.948 326.554 161.887 326.554 170.064H328.554C328.554 161.601 326.754 154.292 323.109 148.18L321.391 149.204ZM326.554 170.064V172.56H328.554V170.064H326.554ZM326.554 172.56C326.554 180.737 324.817 187.676 321.391 193.42L323.109 194.444C326.754 188.332 328.554 181.023 328.554 172.56H326.554ZM321.391 193.42C317.951 199.186 313.256 203.578 307.289 206.613L308.195 208.395C314.5 205.19 319.476 200.534 323.109 194.444L321.391 193.42ZM307.289 206.613C301.309 209.653 294.551 211.184 286.994 211.184V213.184C294.829 213.184 301.903 211.595 308.195 208.395L307.289 206.613ZM286.994 195.712C293.26 195.712 298.51 193.704 302.667 189.656L301.272 188.224C297.525 191.872 292.792 193.712 286.994 193.712V195.712ZM302.677 189.647C306.868 185.456 308.898 179.554 308.898 172.092H306.898C306.898 179.19 304.975 184.52 301.263 188.233L302.677 189.647ZM308.898 172.092V170.532H306.898V172.092H308.898ZM308.898 170.532C308.898 163.072 306.869 157.214 302.667 153.124L301.272 154.556C304.975 158.162 306.898 163.432 306.898 170.532H308.898ZM302.686 153.142C298.628 148.974 293.366 146.912 286.994 146.912V148.912C292.893 148.912 297.616 150.802 301.253 154.538L302.686 153.142ZM286.994 146.912C280.72 146.912 275.466 148.978 271.311 153.133L272.725 154.547C276.474 150.798 281.204 148.912 286.994 148.912V146.912ZM271.32 153.124C267.119 157.214 265.09 163.072 265.09 170.532H267.09C267.09 163.432 269.013 158.162 272.715 154.556L271.32 153.124ZM265.09 170.532V172.092H267.09V170.532H265.09ZM265.09 172.092C265.09 179.554 267.119 185.456 271.311 189.647L272.725 188.233C269.012 184.52 267.09 179.19 267.09 172.092H265.09ZM271.32 189.656C275.477 193.704 280.728 195.712 286.994 195.712V193.712C281.196 193.712 276.462 191.872 272.715 188.224L271.32 189.656ZM331.345 241.2H330.345V242.2H331.345V241.2ZM331.345 224.352V223.352H330.345V224.352H331.345ZM346.009 132.624V131.624H345.009V132.624H346.009ZM365.665 132.624H366.665V131.624H365.665V132.624ZM360.985 236.364L360.278 235.657L360.272 235.663L360.267 235.669L360.985 236.364ZM346.789 120.144L346.098 120.867L346.106 120.874L346.114 120.881L346.789 120.144ZM346.789 102.048L346.114 101.311L346.106 101.318L346.098 101.325L346.789 102.048ZM332.345 241.2V224.352H330.345V241.2H332.345ZM331.345 225.352H341.641V223.352H331.345V225.352ZM341.641 225.352C343.27 225.352 344.67 224.913 345.648 223.864C346.615 222.829 347.009 221.37 347.009 219.672H345.009C345.009 221.094 344.676 221.975 344.186 222.5C343.709 223.011 342.925 223.352 341.641 223.352V225.352ZM347.009 219.672V132.624H345.009V219.672H347.009ZM346.009 133.624H365.665V131.624H346.009V133.624ZM364.665 132.624V223.728H366.665V132.624H364.665ZM364.665 223.728C364.665 228.824 363.174 232.761 360.278 235.657L361.692 237.071C365.037 233.727 366.665 229.24 366.665 223.728H364.665ZM360.267 235.669C357.365 238.667 353.481 240.2 348.505 240.2V242.2C353.929 242.2 358.365 240.509 361.704 237.059L360.267 235.669ZM348.505 240.2H331.345V242.2H348.505V240.2ZM355.837 122.576C352.539 122.576 349.768 121.518 347.465 119.407L346.114 120.881C348.803 123.346 352.063 124.576 355.837 124.576V122.576ZM347.481 119.421C345.312 117.348 344.201 114.606 344.201 111.096H342.201C342.201 115.074 343.482 118.364 346.098 120.867L347.481 119.421ZM344.201 111.096C344.201 107.586 345.312 104.844 347.481 102.771L346.098 101.325C343.482 103.828 342.201 107.118 342.201 111.096H344.201ZM347.465 102.785C349.768 100.674 352.539 99.616 355.837 99.616V97.616C352.063 97.616 348.803 98.8457 346.114 101.311L347.465 102.785ZM355.837 99.616C359.248 99.616 362.008 100.679 364.194 102.771L365.577 101.325C362.979 98.8409 359.707 97.616 355.837 97.616V99.616ZM364.194 102.771C366.362 104.844 367.473 107.586 367.473 111.096H369.473C369.473 107.118 368.192 103.828 365.577 101.325L364.194 102.771ZM367.473 111.096C367.473 114.606 366.362 117.348 364.194 119.421L365.577 120.867C368.192 118.364 369.473 115.074 369.473 111.096H367.473ZM364.194 119.421C362.008 121.513 359.248 122.576 355.837 122.576V124.576C359.707 124.576 362.979 123.351 365.577 120.867L364.194 119.421ZM402.26 207.348L401.763 208.216L401.773 208.221L401.782 208.226L402.26 207.348ZM388.532 193.464L387.65 193.935L387.654 193.945L387.66 193.954L388.532 193.464ZM388.532 149.316L389.41 149.794L389.413 149.787L388.532 149.316ZM402.104 135.432L402.588 136.307L402.6 136.3L402.104 135.432ZM442.196 135.588L441.674 136.441L441.686 136.448L442.196 135.588ZM455.3 149.628L454.411 150.087L454.415 150.094L455.3 149.628ZM459.98 177.084V178.084H460.98V177.084H459.98ZM403.664 177.084V176.084H402.624L402.664 177.123L403.664 177.084ZM441.416 183.48L441.88 182.594L440.95 182.107L440.509 183.059L441.416 183.48ZM457.484 191.904L458.364 192.378L458.843 191.488L457.948 191.018L457.484 191.904ZM451.088 200.796L450.333 200.139L450.332 200.141L451.088 200.796ZM440.168 208.908L440.598 209.81L440.607 209.807L440.615 209.802L440.168 208.908ZM403.82 162.42L402.833 162.259L402.644 163.42H403.82V162.42ZM440.012 162.42V163.42H441.109L441.007 162.327L440.012 162.42ZM434.552 151.656L433.897 152.412L433.903 152.417L433.909 152.422L434.552 151.656ZM422.696 211.184C415.143 211.184 408.499 209.603 402.737 206.47L401.782 208.226C407.876 211.541 414.856 213.184 422.696 213.184V211.184ZM402.756 206.48C397.091 203.243 392.644 198.747 389.404 192.974L387.66 193.954C391.075 200.037 395.78 204.797 401.763 208.216L402.756 206.48ZM389.413 192.993C386.28 187.13 384.696 180.226 384.696 172.248H382.696C382.696 180.494 384.335 187.734 387.65 193.935L389.413 192.993ZM384.696 172.248V170.376H382.696V172.248H384.696ZM384.696 170.376C384.696 162.397 386.28 155.548 389.41 149.794L387.653 148.838C384.335 154.94 382.696 162.131 382.696 170.376H384.696ZM389.413 149.787C392.549 143.92 396.937 139.435 402.588 136.307L401.619 134.557C395.622 137.877 390.962 142.648 387.65 148.845L389.413 149.787ZM402.6 136.3C408.251 133.071 414.836 131.44 422.384 131.44V129.44C414.539 129.44 407.604 131.137 401.607 134.564L402.6 136.3ZM422.384 131.44C429.82 131.44 436.238 133.119 441.674 136.441L442.717 134.735C436.921 131.193 430.131 129.44 422.384 129.44V131.44ZM441.686 136.448C447.134 139.677 451.374 144.215 454.411 150.087L456.188 149.169C452.985 142.977 448.489 138.155 442.705 134.728L441.686 136.448ZM454.415 150.094C457.447 155.854 458.98 162.605 458.98 170.376H460.98C460.98 162.339 459.393 155.258 456.184 149.162L454.415 150.094ZM458.98 170.376V177.084H460.98V170.376H458.98ZM459.98 176.084H403.664V178.084H459.98V176.084ZM402.664 177.123C402.882 182.681 404.967 187.259 408.927 190.779L410.256 189.285C406.728 186.149 404.861 182.095 404.663 177.045L402.664 177.123ZM408.927 190.779C412.869 194.284 417.688 196.024 423.32 196.024V194.024C418.135 194.024 413.802 192.436 410.256 189.285L408.927 190.779ZM423.32 196.024C428.947 196.024 433.3 194.807 436.165 192.172L434.81 190.7C432.475 192.849 428.716 194.024 423.32 194.024V196.024ZM436.165 192.172C438.851 189.7 440.91 186.944 442.323 183.901L440.509 183.059C439.217 185.84 437.324 188.388 434.81 190.7L436.165 192.172ZM440.951 184.366L457.019 192.79L457.948 191.018L441.88 182.594L440.951 184.366ZM456.603 191.43C455.193 194.049 453.11 196.951 450.333 200.139L451.842 201.453C454.681 198.193 456.862 195.167 458.364 192.378L456.603 191.43ZM450.332 200.141C447.732 203.141 444.206 205.771 439.72 208.014L440.615 209.802C445.281 207.469 449.035 204.691 451.843 201.451L450.332 200.141ZM439.737 208.006C435.338 210.105 429.674 211.184 422.696 211.184V213.184C429.861 213.184 435.846 212.079 440.598 209.81L439.737 208.006ZM403.82 163.42H440.012V161.42H403.82V163.42ZM441.007 162.327C440.569 157.613 438.635 153.775 435.194 150.89L433.909 152.422C436.917 154.945 438.622 158.283 439.016 162.513L441.007 162.327ZM435.206 150.9C431.865 148.004 427.506 146.6 422.228 146.6V148.6C427.141 148.6 430.998 149.9 433.897 152.412L435.206 150.9ZM422.228 146.6C416.753 146.6 412.285 147.998 408.937 150.9L410.246 152.412C413.138 149.906 417.094 148.6 422.228 148.6V146.6ZM408.937 150.9C405.622 153.773 403.594 157.58 402.833 162.259L404.807 162.581C405.501 158.316 407.321 154.947 410.246 152.412L408.937 150.9ZM493.387 207.504L492.927 208.392L492.933 208.395L493.387 207.504ZM479.035 148.692L479.893 149.204L479.035 148.692ZM493.387 135.12L492.933 134.229L492.927 134.232L493.387 135.12ZM532.855 134.34L532.415 135.238L532.855 134.34ZM545.647 145.104L544.829 145.68L544.837 145.691L544.844 145.701L545.647 145.104ZM552.199 160.392L552.407 161.37L553.356 161.168L553.183 160.213L552.199 160.392ZM533.167 164.448L532.175 164.58L532.318 165.651L533.375 165.426L533.167 164.448ZM524.119 150.096L523.63 150.969L523.637 150.973L523.645 150.976L524.119 150.096ZM503.527 150.564L503.997 151.446L504.008 151.441L503.527 150.564ZM496.039 158.208L495.161 157.729L495.156 157.739L496.039 158.208ZM496.039 184.572L495.15 185.03L495.158 185.046L495.167 185.062L496.039 184.572ZM503.527 192.216L503.034 193.086L503.051 193.096L503.068 193.105L503.527 192.216ZM527.707 190.188L528.414 190.895L527.707 190.188ZM533.635 178.02L533.866 177.047L532.824 176.8L532.648 177.856L533.635 178.02ZM552.667 182.544L553.638 182.782L553.878 181.804L552.898 181.571L552.667 182.544ZM545.647 197.676L544.838 197.088L544.836 197.091L545.647 197.676ZM513.823 211.184C506.478 211.184 499.823 209.655 493.84 206.613L492.933 208.395C499.222 211.593 506.191 213.184 513.823 213.184V211.184ZM493.846 206.616C487.983 203.583 483.336 199.19 479.893 193.42L478.176 194.444C481.806 200.53 486.727 205.185 492.927 208.392L493.846 206.616ZM479.893 193.42C476.468 187.677 474.731 180.687 474.731 172.404H472.731C472.731 180.969 474.529 188.331 478.176 194.444L479.893 193.42ZM474.731 172.404V170.22H472.731V172.404H474.731ZM474.731 170.22C474.731 161.937 476.468 154.947 479.893 149.204L478.176 148.18C474.529 154.293 472.731 161.655 472.731 170.22H474.731ZM479.893 149.204C483.336 143.434 487.983 139.041 493.846 136.008L492.927 134.232C486.727 137.439 481.806 142.094 478.176 148.18L479.893 149.204ZM493.84 136.011C499.823 132.969 506.478 131.44 513.823 131.44V129.44C506.191 129.44 499.222 131.031 492.933 134.229L493.84 136.011ZM513.823 131.44C521.091 131.44 527.277 132.72 532.415 135.238L533.295 133.442C527.824 130.76 521.322 129.44 513.823 129.44V131.44ZM532.415 135.238C537.576 137.768 541.707 141.249 544.829 145.68L546.464 144.528C543.138 139.807 538.741 136.112 533.295 133.442L532.415 135.238ZM544.844 145.701C548.077 150.044 550.201 154.996 551.215 160.571L553.183 160.213C552.116 154.348 549.873 149.108 546.449 144.507L544.844 145.701ZM551.99 159.414L532.958 163.47L533.375 165.426L552.407 161.37L551.99 159.414ZM534.158 164.316C533.726 161.077 532.751 158.14 531.222 155.52L529.495 156.528C530.879 158.9 531.775 161.579 532.175 164.58L534.158 164.316ZM531.222 155.52C529.668 152.855 527.448 150.753 524.593 149.216L523.645 150.976C526.197 152.351 528.138 154.201 529.495 156.528L531.222 155.52ZM524.607 149.223C521.817 147.661 518.36 146.912 514.291 146.912V148.912C518.126 148.912 521.22 149.619 523.63 150.969L524.607 149.223ZM514.291 146.912C510.184 146.912 506.428 147.832 503.046 149.687L504.008 151.441C507.073 149.76 510.494 148.912 514.291 148.912V146.912ZM503.056 149.682C499.746 151.447 497.116 154.145 495.161 157.729L496.917 158.687C498.705 155.407 501.067 153.009 503.997 151.446L503.056 149.682ZM495.156 157.739C493.291 161.248 492.387 165.528 492.387 170.532H494.387C494.387 165.76 495.25 161.824 496.922 158.677L495.156 157.739ZM492.387 170.532V172.092H494.387V170.532H492.387ZM492.387 172.092C492.387 177.098 493.292 181.424 495.15 185.03L496.928 184.114C495.249 180.856 494.387 176.862 494.387 172.092H492.387ZM495.167 185.062C497.122 188.538 499.745 191.222 503.034 193.086L504.02 191.346C501.068 189.674 498.699 187.262 496.91 184.082L495.167 185.062ZM503.068 193.105C506.446 194.848 510.194 195.712 514.291 195.712V193.712C510.484 193.712 507.055 192.912 503.985 191.327L503.068 193.105ZM514.291 195.712C520.379 195.712 525.147 194.162 528.414 190.895L527 189.481C524.234 192.246 520.059 193.712 514.291 193.712V195.712ZM528.414 190.895C531.702 187.607 533.76 183.351 534.621 178.184L532.648 177.856C531.845 182.673 529.951 186.529 527 189.481L528.414 190.895ZM533.403 178.993L552.435 183.517L552.898 181.571L533.866 177.047L533.403 178.993ZM551.695 182.306C550.374 187.692 548.089 192.617 544.838 197.088L546.455 198.264C549.86 193.583 552.255 188.42 553.638 182.782L551.695 182.306ZM544.836 197.091C541.714 201.42 537.582 204.853 532.415 207.386L533.295 209.182C538.736 206.515 543.131 202.876 546.458 198.261L544.836 197.091ZM532.415 207.386C527.277 209.904 521.091 211.184 513.823 211.184V213.184C521.322 213.184 527.824 211.864 533.295 209.182L532.415 207.386ZM583.451 205.32L582.732 206.015L582.744 206.027L582.756 206.039L583.451 205.32ZM578.771 148.848H579.771V147.848H578.771V148.848ZM559.427 148.848H558.427V149.848H559.427V148.848ZM559.427 132.624V131.624H558.427V132.624H559.427ZM578.771 132.624V133.624H579.771V132.624H578.771ZM578.771 108.6V107.6H577.771V108.6H578.771ZM598.427 108.6H599.427V107.6H598.427V108.6ZM598.427 132.624H597.427V133.624H598.427V132.624ZM619.643 132.624H620.643V131.624H619.643V132.624ZM619.643 148.848V149.848H620.643V148.848H619.643ZM598.427 148.848V147.848H597.427V148.848H598.427ZM617.771 193.776H618.771V192.776H617.771V193.776ZM617.771 210V211H618.771V210H617.771ZM595.931 209C591.056 209 587.158 207.516 584.147 204.601L582.756 206.039C586.192 209.364 590.614 211 595.931 211V209ZM584.17 204.625C581.263 201.621 579.771 197.623 579.771 192.528H577.771C577.771 198.041 579.4 202.571 582.732 206.015L584.17 204.625ZM579.771 192.528V148.848H577.771V192.528H579.771ZM578.771 147.848H559.427V149.848H578.771V147.848ZM560.427 148.848V132.624H558.427V148.848H560.427ZM559.427 133.624H578.771V131.624H559.427V133.624ZM579.771 132.624V108.6H577.771V132.624H579.771ZM578.771 109.6H598.427V107.6H578.771V109.6ZM597.427 108.6V132.624H599.427V108.6H597.427ZM598.427 133.624H619.643V131.624H598.427V133.624ZM618.643 132.624V148.848H620.643V132.624H618.643ZM619.643 147.848H598.427V149.848H619.643V147.848ZM597.427 148.848V189.096H599.427V148.848H597.427ZM597.427 189.096C597.427 190.794 597.822 192.253 598.788 193.288C599.766 194.337 601.167 194.776 602.795 194.776V192.776C601.512 192.776 600.728 192.435 600.25 191.924C599.76 191.399 599.427 190.518 599.427 189.096H597.427ZM602.795 194.776H617.771V192.776H602.795V194.776ZM616.771 193.776V210H618.771V193.776H616.771ZM617.771 209H595.931V211H617.771V209ZM644.768 205.632L645.328 204.804L644.768 205.632ZM633.068 186.912L632.817 185.944L631.931 186.173L632.081 187.076L633.068 186.912ZM651.164 182.232L652.144 182.036L651.937 180.999L650.913 181.264L651.164 182.232ZM654.752 190.812L653.971 191.437L653.98 191.448L653.99 191.46L654.752 190.812ZM661.148 195.336L660.797 196.272L660.819 196.281L660.843 196.288L661.148 195.336ZM679.712 194.244L680.293 195.058L680.305 195.049L680.318 195.039L679.712 194.244ZM679.868 182.7L679.323 183.538L679.338 183.548L679.353 183.557L679.868 182.7ZM669.884 179.424L670.062 178.44L670.059 178.44L669.884 179.424ZM665.516 178.644L665.327 179.626L665.34 179.628L665.516 178.644ZM650.696 174.432L650.31 175.354L650.319 175.358L650.328 175.362L650.696 174.432ZM639.932 166.788L639.165 167.431L639.932 166.788ZM644.3 136.68L644.885 137.491L644.895 137.484L644.3 136.68ZM687.98 136.212L687.421 137.042L687.98 136.212ZM699.212 151.344L699.506 152.3L700.44 152.012L700.174 151.071L699.212 151.344ZM680.96 156.96L679.981 157.166L680.207 158.238L681.254 157.916L680.96 156.96ZM675.812 148.536L675.257 149.368L675.265 149.373L675.273 149.378L675.812 148.536ZM657.872 148.068L658.406 148.913L658.421 148.904L658.436 148.893L657.872 148.068ZM658.028 158.988L657.513 159.845L657.529 159.855L657.546 159.864L658.028 158.988ZM666.452 161.64L666.627 160.656L666.625 160.655L666.452 161.64ZM686.576 166.632L686.222 167.567L686.235 167.572L686.247 167.576L686.576 166.632ZM697.808 173.964L697.041 174.607L697.053 174.62L697.064 174.633L697.808 173.964ZM693.128 205.632L693.728 206.432L693.73 206.43L693.128 205.632ZM669.572 211.184C659.625 211.184 651.568 209.031 645.328 204.804L644.207 206.46C650.863 210.969 659.342 213.184 669.572 213.184V211.184ZM645.328 204.804C639.121 200.599 635.364 194.606 634.054 186.748L632.081 187.076C633.475 195.442 637.518 201.929 644.207 206.46L645.328 204.804ZM633.318 187.88L651.414 183.2L650.913 181.264L632.817 185.944L633.318 187.88ZM650.183 182.428C650.931 186.167 652.175 189.193 653.971 191.437L655.532 190.187C654 188.271 652.852 185.577 652.144 182.036L650.183 182.428ZM653.99 191.46C655.865 193.666 658.137 195.275 660.797 196.272L661.499 194.4C659.166 193.525 657.174 192.118 655.514 190.164L653.99 191.46ZM660.843 196.288C663.551 197.155 666.463 197.584 669.572 197.584V195.584C666.648 195.584 663.944 195.181 661.452 194.384L660.843 196.288ZM669.572 197.584C674.224 197.584 677.857 196.798 680.293 195.058L679.13 193.43C677.198 194.81 674.071 195.584 669.572 195.584V197.584ZM680.318 195.039C682.708 193.218 683.988 190.913 683.988 188.16H681.988C681.988 190.191 681.083 191.942 679.106 193.449L680.318 195.039ZM683.988 188.16C683.988 185.411 682.758 183.268 680.382 181.843L679.353 183.557C681.137 184.628 681.988 186.125 681.988 188.16H683.988ZM680.413 181.862C678.162 180.399 674.675 179.279 670.062 178.44L669.705 180.408C674.244 181.233 677.413 182.297 679.323 183.538L680.413 181.862ZM670.059 178.44L665.691 177.66L665.34 179.628L669.708 180.408L670.059 178.44ZM665.704 177.662C660.349 176.632 655.47 175.244 651.063 173.502L650.328 175.362C654.865 177.156 659.866 178.576 665.327 179.626L665.704 177.662ZM651.082 173.51C646.734 171.69 643.285 169.23 640.698 166.145L639.165 167.431C641.987 170.794 645.713 173.43 650.31 175.354L651.082 173.51ZM640.698 166.145C638.175 163.137 636.876 159.221 636.876 154.308H634.876C634.876 159.587 636.28 163.991 639.165 167.431L640.698 166.145ZM636.876 154.308C636.876 146.892 639.561 141.336 644.885 137.491L643.714 135.869C637.806 140.136 634.876 146.332 634.876 154.308H636.876ZM644.895 137.484C650.292 133.486 657.448 131.44 666.452 131.44V129.44C657.151 129.44 649.539 131.554 643.704 135.876L644.895 137.484ZM666.452 131.44C674.935 131.44 681.904 133.33 687.421 137.042L688.538 135.382C682.616 131.398 675.232 129.44 666.452 129.44V131.44ZM687.421 137.042C692.958 140.767 696.55 145.619 698.25 151.617L700.174 151.071C698.337 144.589 694.441 139.353 688.538 135.382L687.421 137.042ZM698.918 150.388L680.666 156.004L681.254 157.916L699.506 152.3L698.918 150.388ZM681.938 156.754C681.069 152.624 679.24 149.543 676.351 147.694L675.273 149.378C677.583 150.857 679.187 153.392 679.981 157.166L681.938 156.754ZM676.366 147.704C673.669 145.906 670.344 145.04 666.452 145.04V147.04C670.047 147.04 672.962 147.838 675.257 149.368L676.366 147.704ZM666.452 145.04C662.611 145.04 659.519 145.729 657.307 147.243L658.436 148.893C660.176 147.703 662.804 147.04 666.452 147.04V145.04ZM657.338 147.223C655.079 148.649 653.908 150.732 653.908 153.372H655.908C655.908 151.436 656.712 149.983 658.406 148.913L657.338 147.223ZM653.908 153.372C653.908 156.207 655.121 158.41 657.513 159.845L658.542 158.131C656.774 157.07 655.908 155.529 655.908 153.372H653.908ZM657.546 159.864C659.758 161.081 662.683 161.99 666.278 162.625L666.625 160.655C663.148 160.042 660.458 159.183 658.51 158.112L657.546 159.864ZM666.276 162.624L670.644 163.404L670.995 161.436L666.627 160.656L666.276 162.624ZM670.644 163.404C676.418 164.436 681.609 165.825 686.222 167.567L686.929 165.697C682.182 163.903 676.869 162.484 670.995 161.436L670.644 163.404ZM686.247 167.576C690.896 169.193 694.475 171.547 697.041 174.607L698.574 173.321C695.732 169.933 691.824 167.399 686.904 165.688L686.247 167.576ZM697.064 174.633C699.664 177.521 701.02 181.522 701.02 186.756H703.02C703.02 181.174 701.567 176.647 698.551 173.295L697.064 174.633ZM701.02 186.756C701.02 194.588 698.177 200.57 692.525 204.834L693.73 206.43C699.934 201.75 703.02 195.148 703.02 186.756H701.02ZM692.528 204.832C686.929 209.031 679.312 211.184 669.572 211.184V213.184C679.592 213.184 687.678 210.969 693.728 206.432L692.528 204.832Z"
            fill="black" fill-opacity="0.5" mask="url(#path-2-outside-1_315_3)" />
    </g>
    <defs>
        <linearGradient id="paint0_linear_315_3" x1="96.296" y1="169.908" x2="702.02" y2="169.908"
            gradientUnits="userSpaceOnUse">
            <stop stop-color="#E3B261" />
            <stop offset="0.14" stop-color="#EF652A" />
            <stop offset="0.29" stop-color="#FF0000" />
            <stop offset="0.505" stop-color="#B924FF" />
            <stop offset="0.71" stop-color="#264DE4" />
            <stop offset="1" stop-color="#2965F1" />
        </linearGradient>
        <linearGradient id="paint1_linear_315_3" x1="96.296" y1="169.908" x2="702.02" y2="169.908"
            gradientUnits="userSpaceOnUse">
            <stop stop-color="#E3B261" />
            <stop offset="0.14" stop-color="#EF652A" />
            <stop offset="0.29" stop-color="#FF0000" />
            <stop offset="0.505" stop-color="#B924FF" />
            <stop offset="0.71" stop-color="#264DE4" />
            <stop offset="1" stop-color="#2965F1" />
        </linearGradient>
        <linearGradient id="paint2_linear_315_3" x1="96.296" y1="169.908" x2="702.02" y2="169.908"
            gradientUnits="userSpaceOnUse">
            <stop stop-color="#E3B261" />
            <stop offset="0.14" stop-color="#EF652A" />
            <stop offset="0.29" stop-color="#FF0000" />
            <stop offset="0.505" stop-color="#B924FF" />
            <stop offset="0.71" stop-color="#264DE4" />
            <stop offset="1" stop-color="#2965F1" />
        </linearGradient>
        <linearGradient id="paint3_linear_315_3" x1="96.296" y1="169.908" x2="702.02" y2="169.908"
            gradientUnits="userSpaceOnUse">
            <stop stop-color="#E3B261" />
            <stop offset="0.14" stop-color="#EF652A" />
            <stop offset="0.29" stop-color="#FF0000" />
            <stop offset="0.505" stop-color="#B924FF" />
            <stop offset="0.71" stop-color="#264DE4" />
            <stop offset="1" stop-color="#2965F1" />
        </linearGradient>
        <linearGradient id="paint4_linear_315_3" x1="96.296" y1="169.908" x2="702.02" y2="169.908"
            gradientUnits="userSpaceOnUse">
            <stop stop-color="#E3B261" />
            <stop offset="0.14" stop-color="#EF652A" />
            <stop offset="0.29" stop-color="#FF0000" />
            <stop offset="0.505" stop-color="#B924FF" />
            <stop offset="0.71" stop-color="#264DE4" />
            <stop offset="1" stop-color="#2965F1" />
        </linearGradient>
        <linearGradient id="paint5_linear_315_3" x1="96.296" y1="169.908" x2="702.02" y2="169.908"
            gradientUnits="userSpaceOnUse">
            <stop stop-color="#E3B261" />
            <stop offset="0.14" stop-color="#EF652A" />
            <stop offset="0.29" stop-color="#FF0000" />
            <stop offset="0.505" stop-color="#B924FF" />
            <stop offset="0.71" stop-color="#264DE4" />
            <stop offset="1" stop-color="#2965F1" />
        </linearGradient>
        <linearGradient id="paint6_linear_315_3" x1="96.296" y1="169.908" x2="702.02" y2="169.908"
            gradientUnits="userSpaceOnUse">
            <stop stop-color="#E3B261" />
            <stop offset="0.14" stop-color="#EF652A" />
            <stop offset="0.29" stop-color="#FF0000" />
            <stop offset="0.505" stop-color="#B924FF" />
            <stop offset="0.71" stop-color="#264DE4" />
            <stop offset="1" stop-color="#2965F1" />
        </linearGradient>
        <linearGradient id="paint7_linear_315_3" x1="96.296" y1="169.908" x2="702.02" y2="169.908"
            gradientUnits="userSpaceOnUse">
            <stop stop-color="#E3B261" />
            <stop offset="0.14" stop-color="#EF652A" />
            <stop offset="0.29" stop-color="#FF0000" />
            <stop offset="0.505" stop-color="#B924FF" />
            <stop offset="0.71" stop-color="#264DE4" />
            <stop offset="1" stop-color="#2965F1" />
        </linearGradient>
        <linearGradient id="paint8_linear_315_3" x1="376.276" y1="57" x2="376.276" y2="256"
            gradientUnits="userSpaceOnUse">
            <stop stop-opacity="0.8" />
            <stop offset="1" stop-opacity="0.2" />
        </linearGradient>
    </defs>
</svg>
    