<svg width="200" height="59" viewBox="0 0 200 59" fill="none" xmlns="http://www.w3.org/2000/svg">
    <rect width="59" height="59" rx="14" fill="url(#paint0_linear_220_8)" fill-opacity="0.6" />
    <rect width="59" height="59" rx="14" fill="url(#paint1_linear_220_8)" fill-opacity="0.6" />
    <rect x="1" y="1" width="57" height="57" rx="13" stroke="#FFFEFE" stroke-opacity="0.3"
        stroke-width="2" />
    <path
        d="M15.584 38V21.2H21.608L24.944 35.84H25.376V21.2H28.496V38H22.472L19.136 23.36H18.704V38H15.584ZM30.5101 38L34.9261 21.2H40.4461L44.8621 38H41.5981L40.6861 34.304H34.6861L33.7741 38H30.5101ZM35.4301 31.376H39.9421L37.9021 23.192H37.4701L35.4301 31.376Z"
        fill="white" />
    <path
        d="M84.904 38V32.216L79.192 21.2H82.72L86.272 28.4H86.704L90.256 21.2H93.784L88.072 32.216V38H84.904ZM98.9712 38.336C97.7872 38.336 96.7392 38.088 95.8272 37.592C94.9312 37.08 94.2272 36.368 93.7152 35.456C93.2192 34.528 92.9712 33.44 92.9712 32.192V31.904C92.9712 30.656 93.2192 29.576 93.7152 28.664C94.2112 27.736 94.9072 27.024 95.8032 26.528C96.6992 26.016 97.7392 25.76 98.9232 25.76C100.091 25.76 101.107 26.024 101.971 26.552C102.835 27.064 103.507 27.784 103.987 28.712C104.467 29.624 104.707 30.688 104.707 31.904V32.936H96.0432C96.0752 33.752 96.3792 34.416 96.9552 34.928C97.5312 35.44 98.2352 35.696 99.0672 35.696C99.9152 35.696 100.539 35.512 100.939 35.144C101.339 34.776 101.643 34.368 101.851 33.92L104.323 35.216C104.099 35.632 103.771 36.088 103.339 36.584C102.923 37.064 102.363 37.48 101.659 37.832C100.955 38.168 100.059 38.336 98.9712 38.336ZM96.0672 30.68H101.635C101.571 29.992 101.291 29.44 100.795 29.024C100.315 28.608 99.6832 28.4 98.8992 28.4C98.0832 28.4 97.4352 28.608 96.9552 29.024C96.4752 29.44 96.1792 29.992 96.0672 30.68ZM111.56 38C110.776 38 110.136 37.76 109.64 37.28C109.16 36.784 108.92 36.128 108.92 35.312V28.592H105.944V26.096H108.92V22.4H111.944V26.096H115.208V28.592H111.944V34.784C111.944 35.264 112.168 35.504 112.616 35.504H114.92V38H111.56ZM128.599 38C127.815 38 127.175 37.76 126.679 37.28C126.199 36.784 125.959 36.128 125.959 35.312V28.592H122.983V26.096H125.959V22.4H128.983V26.096H132.247V28.592H128.983V34.784C128.983 35.264 129.207 35.504 129.655 35.504H131.959V38H128.599ZM140.227 38.336C139.043 38.336 137.979 38.096 137.035 37.616C136.091 37.136 135.347 36.44 134.803 35.528C134.259 34.616 133.987 33.52 133.987 32.24V31.856C133.987 30.576 134.259 29.48 134.803 28.568C135.347 27.656 136.091 26.96 137.035 26.48C137.979 26 139.043 25.76 140.227 25.76C141.411 25.76 142.475 26 143.419 26.48C144.363 26.96 145.107 27.656 145.651 28.568C146.195 29.48 146.467 30.576 146.467 31.856V32.24C146.467 33.52 146.195 34.616 145.651 35.528C145.107 36.44 144.363 37.136 143.419 37.616C142.475 38.096 141.411 38.336 140.227 38.336ZM140.227 35.648C141.155 35.648 141.923 35.352 142.531 34.76C143.139 34.152 143.443 33.288 143.443 32.168V31.928C143.443 30.808 143.139 29.952 142.531 29.36C141.939 28.752 141.171 28.448 140.227 28.448C139.299 28.448 138.531 28.752 137.923 29.36C137.315 29.952 137.011 30.808 137.011 31.928V32.168C137.011 33.288 137.315 34.152 137.923 34.76C138.531 35.352 139.299 35.648 140.227 35.648ZM157.32 38V28.592H154.296V26.096H157.32V23.888C157.32 23.072 157.56 22.424 158.04 21.944C158.536 21.448 159.176 21.2 159.96 21.2H162.84V23.696H161.016C160.568 23.696 160.344 23.936 160.344 24.416V26.096H165.144V28.592H160.344V38H157.32ZM165.144 38V26.096H168.168V38H165.144ZM166.656 24.8C166.112 24.8 165.648 24.624 165.264 24.272C164.896 23.92 164.712 23.456 164.712 22.88C164.712 22.304 164.896 21.84 165.264 21.488C165.648 21.136 166.112 20.96 166.656 20.96C167.216 20.96 167.68 21.136 168.048 21.488C168.416 21.84 168.6 22.304 168.6 22.88C168.6 23.456 168.416 23.92 168.048 24.272C167.68 24.624 167.216 24.8 166.656 24.8ZM171.524 38V26.096H174.5V27.656H174.932C175.124 27.24 175.484 26.848 176.012 26.48C176.54 26.096 177.34 25.904 178.412 25.904C179.34 25.904 180.148 26.12 180.836 26.552C181.54 26.968 182.084 27.552 182.468 28.304C182.852 29.04 183.044 29.904 183.044 30.896V38H180.02V31.136C180.02 30.24 179.796 29.568 179.348 29.12C178.916 28.672 178.292 28.448 177.476 28.448C176.548 28.448 175.828 28.76 175.316 29.384C174.804 29.992 174.548 30.848 174.548 31.952V38H171.524ZM191.113 38.336C190.169 38.336 189.281 38.104 188.449 37.64C187.633 37.16 186.977 36.464 186.481 35.552C185.985 34.64 185.737 33.536 185.737 32.24V31.856C185.737 30.56 185.985 29.456 186.481 28.544C186.977 27.632 187.633 26.944 188.449 26.48C189.265 26 190.153 25.76 191.113 25.76C191.833 25.76 192.433 25.848 192.913 26.024C193.409 26.184 193.809 26.392 194.113 26.648C194.417 26.904 194.649 27.176 194.809 27.464H195.241V21.2H198.265V38H195.289V36.56H194.857C194.585 37.008 194.161 37.416 193.585 37.784C193.025 38.152 192.201 38.336 191.113 38.336ZM192.025 35.696C192.953 35.696 193.729 35.4 194.353 34.808C194.977 34.2 195.289 33.32 195.289 32.168V31.928C195.289 30.776 194.977 29.904 194.353 29.312C193.745 28.704 192.969 28.4 192.025 28.4C191.097 28.4 190.321 28.704 189.697 29.312C189.073 29.904 188.761 30.776 188.761 31.928V32.168C188.761 33.32 189.073 34.2 189.697 34.808C190.321 35.4 191.097 35.696 192.025 35.696Z"
        fill="white" />
    <defs>
        <linearGradient id="paint0_linear_220_8" x1="29.5" y1="0" x2="29.5" y2="59"
            gradientUnits="userSpaceOnUse">
            <stop stop-color="#61DAFB" />
            <stop offset="1" stop-color="#2965F1" />
        </linearGradient>
        <linearGradient id="paint1_linear_220_8" x1="29.5" y1="0" x2="29.5" y2="59"
            gradientUnits="userSpaceOnUse">
            <stop stop-color="#61DAFB" />
            <stop offset="1" stop-color="#B924FF" />
        </linearGradient>
    </defs>
</svg>
    