<svg width="80" height="40" viewBox="0 0 80 40" fill="none" xmlns="http://www.w3.org/2000/svg">
   <path
      d="M26.6743 27.8356V12.4719H27.5083V14.8888C27.6068 14.7817 27.6978 14.668 27.7806 14.5484C28.1214 13.841 28.6568 13.2454 29.324 12.8314C29.9912 12.4174 30.7626 12.2022 31.5478 12.2109C33.4484 12.1542 34.9916 12.8577 35.8993 14.5484C36.4769 15.5987 36.7948 16.7719 36.8264 17.9701C36.8579 19.1683 36.6023 20.3567 36.0809 21.4359C35.2355 23.3309 33.1477 24.2727 30.9124 23.9266C30.2168 23.8673 29.547 23.6348 28.9643 23.2503C28.3816 22.8658 27.9045 22.3415 27.5764 21.7253V27.8356H26.6743ZM27.5083 17.9071C27.5821 18.656 27.6104 19.1893 27.6955 19.7112C28.0246 21.765 29.2387 22.9848 31.145 23.206C32.0401 23.3532 32.9585 23.1854 33.7437 22.7312C34.5289 22.277 35.1323 21.5646 35.4511 20.7154C35.8174 19.8419 35.9937 18.9005 35.9683 17.9536C35.9429 17.0067 35.7163 16.0761 35.3036 15.2235C34.9633 14.4624 34.3846 13.8326 33.6549 13.4294C32.9251 13.0261 32.084 12.8713 31.2585 12.9882C30.4834 13.0443 29.7451 13.3406 29.1462 13.8358C28.5473 14.331 28.1176 15.0004 27.9168 15.7512C27.7391 16.4613 27.6027 17.1811 27.5083 17.9071Z"
      fill="white" />
   <path
      d="M53.8387 19.9949C53.7124 21.0766 53.1974 22.0756 52.3897 22.8061C51.582 23.5366 50.5364 23.9489 49.4475 23.9663C45.9527 24.1422 44.313 21.8217 44.0521 19.1439C43.8709 17.6896 44.107 16.2139 44.7329 14.8888C45.1687 13.9798 45.8825 13.2332 46.7709 12.7568C47.6593 12.2805 48.6762 12.0993 49.6744 12.2393C50.6235 12.3197 51.5232 12.6967 52.2461 13.3168C52.969 13.9369 53.4786 14.7687 53.7026 15.6944C53.8801 16.5375 54.0108 17.3899 54.094 18.2475H44.9087C44.7385 20.6757 46.0434 22.6273 47.893 23.0982C50.1964 23.6656 52.1651 22.6671 52.8799 20.4771C53.0388 19.9154 53.3281 19.836 53.8387 19.9949ZM44.9087 17.4702H53.1182C53.0671 14.8831 51.4559 13.0109 49.2716 12.9825C46.798 12.9428 45.0165 14.7469 44.9087 17.4702Z"
      fill="white" />
   <path
      d="M55.5294 20.0515H56.335C56.3648 20.6443 56.5574 21.2174 56.8917 21.7079C57.226 22.1983 57.6891 22.5871 58.2299 22.8315C58.9092 23.1372 59.6486 23.2857 60.3931 23.266C61.1377 23.2464 61.8683 23.0591 62.5304 22.718C62.8913 22.5553 63.1935 22.2859 63.3964 21.946C63.5993 21.6062 63.6931 21.2123 63.6651 20.8174C63.6859 20.4366 63.5819 20.0594 63.3689 19.7431C63.1559 19.4267 62.8456 19.1884 62.485 19.0643C61.6 18.7353 60.6582 18.5537 59.7561 18.2644C58.8175 17.9971 57.8997 17.6615 57.0102 17.2602C55.5578 16.551 55.467 13.788 57.1123 12.9143C57.9547 12.4389 58.9029 12.1821 59.8701 12.1672C60.8373 12.1523 61.7929 12.3799 62.6496 12.8292C63.1685 13.116 63.5877 13.5542 63.8512 14.0854C64.1148 14.6165 64.2102 15.2154 64.1246 15.8021H63.4325C63.4325 15.7681 63.3701 15.7397 63.3701 15.7057C63.285 13.4987 61.4354 12.8179 59.4497 13.0108C58.857 13.0839 58.2812 13.2585 57.7477 13.5271C57.4272 13.6736 57.1601 13.9161 56.9833 14.221C56.8064 14.5258 56.7286 14.8781 56.7605 15.2291C56.7615 15.5802 56.8711 15.9225 57.0742 16.2089C57.2774 16.4954 57.5641 16.7119 57.8952 16.829C58.7689 17.1467 59.6823 17.351 60.5787 17.6006C61.2993 17.7992 62.0482 17.9296 62.746 18.1679C63.2385 18.3294 63.6704 18.6366 63.9845 19.049C64.2986 19.4613 64.48 19.9593 64.5048 20.477C64.589 21.0443 64.4923 21.6237 64.2285 22.1329C63.9648 22.6421 63.5473 23.0553 63.0353 23.3137C61.1404 24.386 58.02 24.1023 56.63 22.7464C56.2778 22.3921 55.9991 21.9716 55.8102 21.509C55.6213 21.0465 55.5259 20.5511 55.5294 20.0515Z"
      fill="white" />
   <path
      d="M74.7169 15.8022H73.9624C73.9624 15.7 73.9226 15.6093 73.9113 15.5242C73.8991 14.9586 73.6929 14.4143 73.3272 13.9826C72.9616 13.5509 72.4588 13.2579 71.9029 13.1527C70.8541 12.8517 69.7352 12.9056 68.7201 13.3058C68.3189 13.4209 67.9656 13.6626 67.7131 13.9949C67.4605 14.3272 67.3222 14.7323 67.3188 15.1497C67.3047 15.5596 67.4324 15.9618 67.6805 16.2885C67.9286 16.6151 68.2817 16.8461 68.6804 16.9425C69.8151 17.2943 70.9781 17.5099 72.1298 17.8276C72.5031 17.9172 72.8706 18.0289 73.2305 18.1623C73.7679 18.3546 74.2348 18.7045 74.5702 19.1663C74.9056 19.6282 75.0939 20.1805 75.1104 20.751C75.127 21.3215 74.971 21.8838 74.663 22.3643C74.3549 22.8448 73.909 23.2212 73.3837 23.4443C72.583 23.8078 71.7153 24.0002 70.836 24.009C69.9567 24.0178 69.0853 23.8428 68.2776 23.4953C67.6133 23.2089 67.0528 22.7258 66.6714 22.1111C66.29 21.4964 66.1061 20.7796 66.1444 20.0572H66.4621H66.8819C67.0184 20.7155 67.3132 21.3306 67.7409 21.8493C68.1687 22.3679 68.7164 22.7745 69.3366 23.0338C69.9569 23.2931 70.631 23.3972 71.3006 23.3373C71.9702 23.2773 72.6151 23.0551 73.1794 22.6897C73.5232 22.5111 73.8086 22.2377 74.0016 21.9018C74.1947 21.5659 74.2874 21.1817 74.2687 20.7948C74.2858 20.4138 74.1782 20.0376 73.9622 19.7232C73.7461 19.4089 73.4335 19.1736 73.0716 19.053C72.1866 18.724 71.2448 18.5481 70.3427 18.2588C69.3988 17.9956 68.4753 17.6638 67.5797 17.2659C66.1614 16.5681 66.0479 13.8278 67.6648 12.9541C68.5178 12.4588 69.4844 12.1927 70.4707 12.1817C71.4569 12.1708 72.4292 12.4154 73.2929 12.8917C73.7868 13.1866 74.1844 13.6187 74.4373 14.1354C74.6901 14.6521 74.7872 15.2312 74.7169 15.8022Z"
      fill="white" />
   <path
      d="M25.2957 23.6882C24.9986 23.8007 24.6707 23.8005 24.3738 23.6876C24.0769 23.5747 23.8316 23.3569 23.6844 23.0755C22.7596 21.6912 21.7384 20.3693 20.7569 19.019L20.3314 18.4516C19.1627 20.0175 17.9939 21.521 16.9273 23.0812C16.7884 23.3501 16.5564 23.5594 16.2746 23.6701C15.9928 23.7807 15.6803 23.7851 15.3955 23.6825L19.7811 17.7992L15.7019 12.4832C15.9955 12.3772 16.3167 12.3757 16.6113 12.4791C16.9059 12.5824 17.1558 12.7843 17.3188 13.0505C18.2663 14.4348 19.3159 15.7568 20.3598 17.1581C21.4093 15.7681 22.4476 14.4405 23.4177 13.0675C23.5575 12.8029 23.7896 12.5989 24.0699 12.4943C24.3503 12.3897 24.6593 12.3918 24.9382 12.5002L23.3553 14.5994C22.6462 15.5355 21.9483 16.4773 21.2108 17.3907C21.1513 17.4439 21.1038 17.5091 21.0713 17.5819C21.0387 17.6547 21.0219 17.7336 21.0219 17.8134C21.0219 17.8931 21.0387 17.972 21.0713 18.0449C21.1038 18.1177 21.1513 18.1828 21.2108 18.236C22.5667 20.0345 23.9113 21.8387 25.2957 23.6882Z"
      fill="white" />
   <path
      d="M43.9159 12.4265V13.2208C43.3421 13.1832 42.7668 13.2663 42.2271 13.4647C41.6873 13.6632 41.1953 13.9726 40.7825 14.3731C40.3698 14.7735 40.0456 15.256 39.8309 15.7895C39.6162 16.3229 39.5158 16.8955 39.536 17.4702C39.536 19.3386 39.536 21.2071 39.536 23.0756C39.536 23.2741 39.536 23.4727 39.536 23.711H38.7247V12.4719H39.519V14.7753C40.5005 13.096 42.0153 12.4719 43.9159 12.4265Z"
      fill="white" />
   <path
      d="M4.88831 17.7255C5.00745 17.1581 5.0812 16.5397 5.24573 15.961C6.22724 12.4719 10.227 11.0195 12.9786 13.181C14.5899 14.4462 14.9927 16.239 14.9133 18.2588H5.83577C5.68826 21.8671 8.29237 24.0457 11.6227 22.9337C12.1629 22.7404 12.6465 22.4157 13.0298 21.9888C13.4131 21.5619 13.6841 21.0463 13.8183 20.4884C13.9942 19.9211 14.2778 19.8246 14.8168 19.9892C14.728 20.6798 14.4838 21.3414 14.1026 21.9241C13.7213 22.5069 13.2129 22.9956 12.6155 23.3535C11.6286 23.8932 10.4962 24.107 9.38044 23.9644C8.26464 23.8217 7.22253 23.3299 6.40311 22.5592C5.59247 21.6478 5.10231 20.4961 5.00745 19.28C5.00745 19.0871 4.93369 18.8942 4.89398 18.7126C4.8902 18.376 4.88831 18.047 4.88831 17.7255ZM5.84712 17.4815H14.0566C14.0055 14.866 12.3545 13.0108 10.1533 12.9938C7.70233 12.9598 5.94924 14.7753 5.84144 17.4702L5.84712 17.4815Z"
      fill="white" />
</svg>
   